<?xml version="1.0" encoding="UTF-8" standalone="no"?>
<!-- Created with Inkscape (http://www.inkscape.org/) -->

<svg
   version="1.1"
   id="svg1"
   width="270.01935"
   height="226.05687"
   viewBox="0 0 270.01935 226.05687"
   sodipodi:docname="quadratic.svg"
   inkscape:version="1.4 (e7c3feb1, 2024-10-09)"
   xmlns:inkscape="http://www.inkscape.org/namespaces/inkscape"
   xmlns:sodipodi="http://sodipodi.sourceforge.net/DTD/sodipodi-0.dtd"
   xmlns="http://www.w3.org/2000/svg"
   xmlns:svg="http://www.w3.org/2000/svg">
  <sodipodi:namedview
     id="namedview1"
     pagecolor="#ffffff"
     bordercolor="#000000"
     borderopacity="0.25"
     inkscape:showpageshadow="2"
     inkscape:pageopacity="0.0"
     inkscape:pagecheckerboard="0"
     inkscape:deskcolor="#d1d1d1"
     inkscape:zoom="2.3250115"
     inkscape:cx="92.902766"
     inkscape:cy="96.128557"
     inkscape:window-width="1512"
     inkscape:window-height="916"
     inkscape:window-x="615"
     inkscape:window-y="40"
     inkscape:window-maximized="0"
     inkscape:current-layer="g1"
     showgrid="false">
    <inkscape:grid
       id="grid76"
       units="px"
       originx="0"
       originy="0"
       spacingx="1"
       spacingy="1"
       empcolor="#0099e5"
       empopacity="0.30196078"
       color="#0099e5"
       opacity="0.14901961"
       empspacing="5"
       enabled="true"
       visible="false" />
  </sodipodi:namedview>
  <defs
     id="defs1">
    <marker
       style="overflow:visible"
       id="marker78"
       refX="0"
       refY="0"
       orient="auto-start-reverse"
       inkscape:stockid="Triangle arrow"
       markerWidth="1"
       markerHeight="1"
       viewBox="0 0 1 1"
       inkscape:isstock="true"
       inkscape:collect="always"
       preserveAspectRatio="xMidYMid">
      <path
         transform="scale(0.5)"
         style="fill:context-stroke;fill-rule:evenodd;stroke:context-stroke;stroke-width:1pt"
         d="M 5.77,0 -2.88,5 V -5 Z"
         id="path78" />
    </marker>
    <marker
       style="overflow:visible"
       id="Triangle"
       refX="0"
       refY="0"
       orient="auto-start-reverse"
       inkscape:stockid="Triangle arrow"
       markerWidth="1"
       markerHeight="1"
       viewBox="0 0 1 1"
       inkscape:isstock="true"
       inkscape:collect="always"
       preserveAspectRatio="xMidYMid">
      <path
         transform="scale(0.5)"
         style="fill:context-stroke;fill-rule:evenodd;stroke:context-stroke;stroke-width:1pt"
         d="M 5.77,0 -2.88,5 V -5 Z"
         id="path135" />
    </marker>
    <clipPath
       clipPathUnits="userSpaceOnUse"
       id="clipPath38">
      <path
         d="M 58.28438,0 H 252.56566 V 161.39682 H 58.28438 Z"
         id="path38" />
    </clipPath>
    <clipPath
       clipPathUnits="userSpaceOnUse"
       id="clipPath40">
      <path
         d="M 58.28438,0 H 252.56566 V 161.39682 H 58.28438 Z"
         id="path40" />
    </clipPath>
    <clipPath
       clipPathUnits="userSpaceOnUse"
       id="clipPath42">
      <path
         d="M 58.28438,0 H 252.56566 V 161.39682 H 58.28438 Z"
         id="path42" />
    </clipPath>
    <defs
       id="id-8d39b620-92b6-4bb5-b1a8-a541775235a3">
      <g
         id="id-f04de0bc-01ff-4ed1-973d-130e39f197a3">
        <g
           id="id-83d8f536-3d73-42b6-b0d0-9322566d227b">
          <path
             d="m 3.3125,-0.75 c 0.046875,0.390625 0.3125,0.8125 0.78125,0.8125 0.21875,0 0.828125,-0.140625 0.828125,-0.953125 v -0.5625 h -0.25 v 0.5625 c 0,0.578125 -0.25,0.640625 -0.359375,0.640625 -0.328125,0 -0.375,-0.453125 -0.375,-0.5 v -1.984375 c 0,-0.421875 0,-0.8125 -0.359375,-1.1875 C 3.1875,-4.3125 2.6875,-4.46875 2.21875,-4.46875 c -0.828125,0 -1.515625,0.46875 -1.515625,1.125 0,0.296875 0.203125,0.46875 0.46875,0.46875 0.28125,0 0.453125,-0.203125 0.453125,-0.453125 0,-0.125 -0.046875,-0.453125 -0.515625,-0.453125 C 1.390625,-4.140625 1.875,-4.25 2.1875,-4.25 c 0.5,0 1.0625,0.390625 1.0625,1.28125 v 0.359375 c -0.515625,0.03125 -1.203125,0.0625 -1.828125,0.359375 -0.75,0.34375 -1,0.859375 -1,1.296875 0,0.8125 0.96875,1.0625 1.59375,1.0625 0.65625,0 1.109375,-0.40625 1.296875,-0.859375 z M 3.25,-2.390625 v 1 c 0,0.9375 -0.71875,1.28125 -1.171875,1.28125 -0.484375,0 -0.890625,-0.34375 -0.890625,-0.84375 0,-0.546875 0.421875,-1.375 2.0625,-1.4375 z m 0,0"
             id="id-63bebdd3-0328-4589-ba5f-1497fdf36f30" />
        </g>
        <g
           id="id-8684908c-9d09-4a15-b0c8-a7376b0b4921">
          <path
             d="M 2.859375,-2.34375 C 3.15625,-2.71875 3.53125,-3.203125 3.78125,-3.46875 4.09375,-3.828125 4.5,-3.984375 4.96875,-3.984375 v -0.3125 c -0.265625,0.015625 -0.5625,0.03125 -0.828125,0.03125 -0.296875,0 -0.828125,-0.015625 -0.953125,-0.03125 v 0.3125 c 0.21875,0.015625 0.296875,0.140625 0.296875,0.3125 0,0.15625 -0.109375,0.28125 -0.15625,0.34375 L 2.71875,-2.546875 1.9375,-3.5625 C 1.84375,-3.65625 1.84375,-3.671875 1.84375,-3.734375 c 0,-0.15625 0.15625,-0.25 0.34375,-0.25 v -0.3125 c -0.25,0.015625 -0.90625,0.03125 -1.078125,0.03125 -0.203125,0 -0.671875,-0.015625 -0.9375,-0.03125 v 0.3125 c 0.703125,0 0.703125,0 1.171875,0.609375 l 0.984375,1.28125 -0.9375,1.1875 C 0.921875,-0.328125 0.328125,-0.3125 0.125,-0.3125 V 0 c 0.25,-0.015625 0.5625,-0.03125 0.828125,-0.03125 0.28125,0 0.703125,0.015625 0.9375,0.03125 v -0.3125 c -0.21875,-0.03125 -0.28125,-0.15625 -0.28125,-0.3125 0,-0.21875 0.28125,-0.546875 0.890625,-1.265625 l 0.765625,1 C 3.34375,-0.78125 3.46875,-0.625 3.46875,-0.5625 c 0,0.09375 -0.09375,0.25 -0.359375,0.25 V 0 C 3.40625,-0.015625 3.96875,-0.03125 4.1875,-0.03125 c 0.265625,0 0.65625,0.015625 0.953125,0.03125 v -0.3125 c -0.53125,0 -0.71875,-0.015625 -0.9375,-0.3125 z m 0,0"
             id="id-ab938677-c924-424f-b95b-ea6bedde0e25" />
        </g>
        <g
           id="id-b8335562-c77b-440d-8046-fb44ccf1b725">
          <path
             d="M 1.765625,-4.40625 0.375,-4.296875 v 0.3125 c 0.640625,0 0.734375,0.0625 0.734375,0.546875 V -0.75 c 0,0.4375 -0.109375,0.4375 -0.78125,0.4375 V 0 C 0.640625,-0.015625 1.1875,-0.03125 1.421875,-0.03125 1.78125,-0.03125 2.125,-0.015625 2.46875,0 v -0.3125 c -0.671875,0 -0.703125,-0.046875 -0.703125,-0.4375 z m 0.03125,-1.734375 c 0,-0.3125 -0.234375,-0.53125 -0.515625,-0.53125 -0.3125,0 -0.53125,0.265625 -0.53125,0.53125 0,0.265625 0.21875,0.53125 0.53125,0.53125 0.28125,0 0.515625,-0.21875 0.515625,-0.53125 z m 0,0"
             id="id-3a7e3fe6-2bf8-44d6-8888-7b48f6338a3c" />
        </g>
        <g
           id="id-579e5dfd-b035-4f86-b77c-00e62c13c9f1">
          <path
             d="m 2.078125,-1.9375 c 0.21875,0.046875 1.03125,0.203125 1.03125,0.921875 0,0.5 -0.34375,0.90625 -1.125,0.90625 -0.84375,0 -1.203125,-0.5625 -1.390625,-1.421875 C 0.5625,-1.65625 0.5625,-1.6875 0.453125,-1.6875 c -0.125,0 -0.125,0.0625 -0.125,0.234375 V -0.125 c 0,0.171875 0,0.234375 0.109375,0.234375 0.046875,0 0.0625,-0.015625 0.25,-0.203125 0.015625,-0.015625 0.015625,-0.03125 0.203125,-0.21875 0.4375,0.40625 0.890625,0.421875 1.09375,0.421875 1.140625,0 1.609375,-0.671875 1.609375,-1.390625 0,-0.515625 -0.296875,-0.828125 -0.421875,-0.9375 C 2.84375,-2.546875 2.453125,-2.625 2.03125,-2.703125 1.46875,-2.8125 0.8125,-2.9375 0.8125,-3.515625 c 0,-0.359375 0.25,-0.765625 1.109375,-0.765625 1.09375,0 1.15625,0.90625 1.171875,1.203125 0,0.09375 0.09375,0.09375 0.109375,0.09375 0.140625,0 0.140625,-0.046875 0.140625,-0.234375 v -1.015625 c 0,-0.15625 0,-0.234375 -0.109375,-0.234375 -0.046875,0 -0.078125,0 -0.203125,0.125 -0.03125,0.03125 -0.125,0.125 -0.171875,0.15625 -0.375,-0.28125 -0.78125,-0.28125 -0.9375,-0.28125 -1.21875,0 -1.59375,0.671875 -1.59375,1.234375 0,0.34375 0.15625,0.625 0.421875,0.84375 0.328125,0.25 0.609375,0.3125 1.328125,0.453125 z m 0,0"
             id="id-72fc58f0-4ad4-4d51-97d2-a78548ab6955" />
        </g>
        <g
           id="id-49bce8d3-3145-4eb1-a3c5-db83703e0bb0">
          <path
             d="M 4.6875,-2.140625 C 4.6875,-3.40625 3.703125,-4.46875 2.5,-4.46875 c -1.25,0 -2.21875,1.09375 -2.21875,2.328125 0,1.296875 1.03125,2.25 2.203125,2.25 1.203125,0 2.203125,-0.984375 2.203125,-2.25 z m -2.1875,2 c -0.4375,0 -0.875,-0.203125 -1.140625,-0.671875 -0.25,-0.4375 -0.25,-1.046875 -0.25,-1.40625 0,-0.390625 0,-0.921875 0.234375,-1.359375 C 1.609375,-4.03125 2.078125,-4.25 2.484375,-4.25 c 0.4375,0 0.859375,0.21875 1.125,0.65625 0.265625,0.421875 0.265625,1 0.265625,1.375 0,0.359375 0,0.90625 -0.21875,1.34375 C 3.421875,-0.421875 2.984375,-0.140625 2.5,-0.140625 Z m 0,0"
             id="id-3f0da7e7-84a0-4e57-92de-c3545a73cd4e" />
        </g>
        <g
           id="id-ad90d8e0-7d54-4569-9fdc-7c224ae8d40a">
          <path
             d="m 1.75,-4.296875 v -1.15625 c 0,-0.875 0.46875,-1.359375 0.90625,-1.359375 0.03125,0 0.1875,0 0.328125,0.078125 C 2.875,-6.703125 2.6875,-6.5625 2.6875,-6.3125 c 0,0.21875 0.15625,0.421875 0.4375,0.421875 0.28125,0 0.4375,-0.203125 0.4375,-0.4375 0,-0.375 -0.375,-0.703125 -0.90625,-0.703125 -0.6875,0 -1.546875,0.53125 -1.546875,1.59375 v 1.140625 h -0.78125 v 0.3125 h 0.78125 V -0.75 C 1.109375,-0.3125 1,-0.3125 0.34375,-0.3125 V 0 c 0.390625,-0.015625 0.859375,-0.03125 1.125,-0.03125 0.40625,0 0.875,0 1.265625,0.03125 V -0.3125 H 2.53125 c -0.734375,0 -0.75,-0.109375 -0.75,-0.46875 v -3.203125 h 1.125 v -0.3125 z m 0,0"
             id="id-ac3e0394-1b6c-4759-9c9b-864891214726" />
        </g>
        <g
           id="id-4ab3c5e8-8f26-4265-afa1-c847adab6840">
          <path
             d="m 4.140625,-3.34375 c 0.25,-0.640625 0.765625,-0.640625 0.921875,-0.640625 v -0.3125 c -0.234375,0.015625 -0.515625,0.03125 -0.75,0.03125 -0.171875,0 -0.640625,-0.015625 -0.859375,-0.03125 v 0.3125 c 0.3125,0 0.46875,0.171875 0.46875,0.421875 0,0.109375 -0.015625,0.125 -0.0625,0.25 L 2.84375,-0.875 1.75,-3.546875 C 1.703125,-3.65625 1.6875,-3.6875 1.6875,-3.734375 c 0,-0.25 0.359375,-0.25 0.5625,-0.25 v -0.3125 c -0.265625,0.015625 -0.921875,0.03125 -1.09375,0.03125 -0.265625,0 -0.671875,-0.015625 -0.96875,-0.03125 v 0.3125 c 0.484375,0 0.671875,0 0.8125,0.34375 L 2.5,0 C 2.4375,0.125 2.296875,0.453125 2.25,0.59375 2.03125,1.140625 1.75,1.828125 1.109375,1.828125 c -0.046875,0 -0.28125,0 -0.46875,-0.1875 0.3125,-0.03125 0.390625,-0.25 0.390625,-0.421875 0,-0.25 -0.1875,-0.40625 -0.421875,-0.40625 -0.203125,0 -0.421875,0.125 -0.421875,0.421875 0,0.453125 0.421875,0.8125 0.921875,0.8125 0.625,0 1.03125,-0.578125 1.265625,-1.140625 z m 0,0"
             id="id-1adb31a2-55f7-4f8b-b5f6-4d997cbc16d4" />
        </g>
        <g
           id="id-63e198c2-a83b-4c14-8791-8354cb6eb204">
          <path
             d="M 1.09375,-3.421875 V -0.75 c 0,0.4375 -0.109375,0.4375 -0.78125,0.4375 V 0 c 0.359375,-0.015625 0.859375,-0.03125 1.140625,-0.03125 0.25,0 0.765625,0.015625 1.109375,0.03125 v -0.3125 c -0.671875,0 -0.78125,0 -0.78125,-0.4375 V -2.59375 C 1.78125,-3.625 2.5,-4.1875 3.125,-4.1875 c 0.640625,0 0.75,0.53125 0.75,1.109375 V -0.75 c 0,0.4375 -0.109375,0.4375 -0.78125,0.4375 V 0 c 0.34375,-0.015625 0.859375,-0.03125 1.125,-0.03125 0.25,0 0.78125,0.015625 1.109375,0.03125 v -0.3125 c -0.65625,0 -0.765625,0 -0.765625,-0.4375 v -1.84375 c 0,-1.03125 0.703125,-1.59375 1.34375,-1.59375 0.625,0 0.734375,0.53125 0.734375,1.109375 V -0.75 c 0,0.4375 -0.109375,0.4375 -0.78125,0.4375 V 0 c 0.34375,-0.015625 0.859375,-0.03125 1.125,-0.03125 0.265625,0 0.78125,0.015625 1.125,0.03125 v -0.3125 c -0.515625,0 -0.765625,0 -0.78125,-0.296875 v -1.90625 c 0,-0.859375 0,-1.15625 -0.3125,-1.515625 -0.140625,-0.171875 -0.46875,-0.375 -1.046875,-0.375 -0.828125,0 -1.28125,0.59375 -1.4375,0.984375 C 4.390625,-4.296875 3.65625,-4.40625 3.203125,-4.40625 2.46875,-4.40625 2,-3.984375 1.71875,-3.359375 V -4.40625 L 0.3125,-4.296875 v 0.3125 c 0.703125,0 0.78125,0.0625 0.78125,0.5625 z m 0,0"
             id="id-60cb10f8-019f-476b-b072-0b492494bf61" />
        </g>
        <g
           id="id-c79446d8-54b1-452a-94ad-e4f235f93c17">
          <path
             d="M 1.109375,-2.515625 C 1.171875,-4 2.015625,-4.25 2.359375,-4.25 c 1.015625,0 1.125,1.34375 1.125,1.734375 z m 0,0.21875 h 2.78125 c 0.21875,0 0.25,0 0.25,-0.21875 0,-0.984375 -0.546875,-1.953125 -1.78125,-1.953125 -1.15625,0 -2.078125,1.03125 -2.078125,2.28125 0,1.328125 1.046875,2.296875 2.1875,2.296875 C 3.6875,0.109375 4.140625,-1 4.140625,-1.1875 4.140625,-1.28125 4.0625,-1.3125 4,-1.3125 c -0.078125,0 -0.109375,0.0625 -0.125,0.140625 -0.34375,1.03125 -1.25,1.03125 -1.34375,1.03125 -0.5,0 -0.890625,-0.296875 -1.125,-0.671875 -0.296875,-0.46875 -0.296875,-1.125 -0.296875,-1.484375 z m 0,0"
             id="id-fee703d9-8d87-4d3e-b2b6-905e72462480" />
        </g>
        <g
           id="id-14e052cb-ca1c-400b-bd5b-d0c210c1f68e">
          <path
             d="m 1.71875,-3.984375 h 1.4375 v -0.3125 H 1.71875 V -6.125 h -0.25 c 0,0.8125 -0.296875,1.875 -1.28125,1.921875 v 0.21875 h 0.84375 v 2.75 c 0,1.21875 0.9375,1.34375 1.296875,1.34375 0.703125,0 0.984375,-0.703125 0.984375,-1.34375 v -0.5625 h -0.25 V -1.25 c 0,0.734375 -0.296875,1.109375 -0.671875,1.109375 -0.671875,0 -0.671875,-0.90625 -0.671875,-1.078125 z m 0,0"
             id="id-dd09c5d7-0f34-4ade-9789-695e35490f81" />
        </g>
        <g
           id="id-b4fd4519-1bd8-4388-b9ad-82081d6d4c55">
          <path
             d="M 1.671875,-3.3125 V -4.40625 L 0.28125,-4.296875 v 0.3125 c 0.703125,0 0.78125,0.0625 0.78125,0.5625 V -0.75 c 0,0.4375 -0.109375,0.4375 -0.78125,0.4375 V 0 c 0.390625,-0.015625 0.859375,-0.03125 1.140625,-0.03125 0.390625,0 0.859375,0 1.265625,0.03125 V -0.3125 H 2.46875 c -0.734375,0 -0.75,-0.109375 -0.75,-0.46875 V -2.3125 c 0,-0.984375 0.421875,-1.875 1.171875,-1.875 0.0625,0 0.09375,0 0.109375,0.015625 -0.03125,0 -0.234375,0.125 -0.234375,0.390625 0,0.265625 0.21875,0.421875 0.4375,0.421875 0.171875,0 0.421875,-0.125 0.421875,-0.4375 0,-0.3125 -0.3125,-0.609375 -0.734375,-0.609375 -0.734375,0 -1.09375,0.671875 -1.21875,1.09375 z m 0,0"
             id="id-a7a1b07c-e75f-472a-8d2f-ee179eb094f5" />
        </g>
        <g
           id="id-f6610290-ba01-4318-a20b-8238f3aa037c">
          <path
             d="M 4.140625,-3.3125 C 4.234375,-3.546875 4.40625,-3.984375 5.0625,-3.984375 v -0.3125 c -0.234375,0.015625 -0.515625,0.03125 -0.75,0.03125 -0.234375,0 -0.6875,-0.015625 -0.859375,-0.03125 v 0.3125 c 0.359375,0 0.46875,0.234375 0.46875,0.421875 0,0.09375 -0.015625,0.140625 -0.046875,0.25 L 2.84375,-0.78125 1.734375,-3.5625 c -0.0625,-0.125 -0.0625,-0.140625 -0.0625,-0.171875 0,-0.25 0.390625,-0.25 0.578125,-0.25 v -0.3125 c -0.3125,0.015625 -0.859375,0.03125 -1.09375,0.03125 -0.265625,0 -0.671875,-0.015625 -0.96875,-0.03125 v 0.3125 c 0.625,0 0.671875,0.0625 0.796875,0.359375 l 1.4375,3.546875 C 2.484375,0.0625 2.5,0.109375 2.625,0.109375 c 0.140625,0 0.171875,-0.09375 0.21875,-0.1875 z m 0,0"
             id="id-4733bef3-60c6-4268-9af7-8c44206465f9" />
        </g>
        <g
           id="id-32e5be08-684d-44ba-9da2-fe41e2c53893">
          <path
             d="m 6.84375,-3.265625 c 0.15625,0 0.34375,0 0.34375,-0.1875 C 7.1875,-3.65625 7,-3.65625 6.859375,-3.65625 h -5.96875 c -0.140625,0 -0.328125,0 -0.328125,0.203125 0,0.1875 0.1875,0.1875 0.328125,0.1875 z m 0.015625,1.9375 c 0.140625,0 0.328125,0 0.328125,-0.203125 0,-0.1875 -0.1875,-0.1875 -0.34375,-0.1875 H 0.890625 c -0.140625,0 -0.328125,0 -0.328125,0.1875 0,0.203125 0.1875,0.203125 0.328125,0.203125 z m 0,0"
             id="id-cd6ecf9d-a67e-4ee1-a5a1-7f55a3f87fd8" />
        </g>
        <g
           id="id-bf2e4a90-871e-4802-b979-f81f45f76c41">
          <path
             d="m 1.265625,-0.765625 1.0625,-1.03125 c 1.546875,-1.375 2.140625,-1.90625 2.140625,-2.90625 0,-1.140625 -0.890625,-1.9375 -2.109375,-1.9375 -1.125,0 -1.859375,0.921875 -1.859375,1.8125 0,0.546875 0.5,0.546875 0.53125,0.546875 0.171875,0 0.515625,-0.109375 0.515625,-0.53125 0,-0.25 -0.1875,-0.515625 -0.53125,-0.515625 -0.078125,0 -0.09375,0 -0.125,0.015625 0.21875,-0.65625 0.765625,-1.015625 1.34375,-1.015625 0.90625,0 1.328125,0.8125 1.328125,1.625 C 3.5625,-3.90625 3.078125,-3.125 2.515625,-2.5 l -1.90625,2.125 C 0.5,-0.265625 0.5,-0.234375 0.5,0 H 4.203125 L 4.46875,-1.734375 H 4.234375 C 4.171875,-1.4375 4.109375,-1 4,-0.84375 3.9375,-0.765625 3.28125,-0.765625 3.0625,-0.765625 Z m 0,0"
             id="id-0a77f7d8-cfbb-42b4-9ad3-0f1c25ffc8d9" />
        </g>
        <g
           id="id-53434fb7-47cb-4bee-9dd5-de2d5b41088b">
          <path
             d="m 2.9375,-6.375 c 0,-0.25 0,-0.265625 -0.234375,-0.265625 C 2.078125,-6 1.203125,-6 0.890625,-6 v 0.3125 c 0.203125,0 0.78125,0 1.296875,-0.265625 v 5.171875 c 0,0.359375 -0.03125,0.46875 -0.921875,0.46875 h -0.3125 V 0 c 0.34375,-0.03125 1.203125,-0.03125 1.609375,-0.03125 0.390625,0 1.265625,0 1.609375,0.03125 v -0.3125 h -0.3125 c -0.90625,0 -0.921875,-0.109375 -0.921875,-0.46875 z m 0,0"
             id="id-e86dbac3-8917-45c4-83f8-c313d7190b0a" />
        </g>
        <g
           id="id-a0bab680-14c0-42d0-a0c4-d67aeded0200">
          <path
             d="m 4.84375,-3.796875 c 0.046875,-0.140625 0.046875,-0.15625 0.046875,-0.234375 0,-0.171875 -0.140625,-0.265625 -0.296875,-0.265625 -0.09375,0 -0.25,0.0625 -0.34375,0.203125 -0.015625,0.0625 -0.109375,0.359375 -0.140625,0.546875 -0.078125,0.25 -0.140625,0.53125 -0.203125,0.796875 l -0.453125,1.796875 c -0.03125,0.140625 -0.46875,0.84375 -1.125,0.84375 -0.5,0 -0.609375,-0.4375 -0.609375,-0.8125 C 1.71875,-1.375 1.890625,-2 2.21875,-2.875 2.375,-3.28125 2.421875,-3.390625 2.421875,-3.59375 c 0,-0.4375 -0.3125,-0.8125 -0.8125,-0.8125 -0.953125,0 -1.3125,1.453125 -1.3125,1.53125 0,0.109375 0.09375,0.109375 0.109375,0.109375 0.109375,0 0.109375,-0.03125 0.15625,-0.1875 0.28125,-0.9375 0.671875,-1.234375 1.015625,-1.234375 0.078125,0 0.25,0 0.25,0.3125 0,0.25 -0.109375,0.515625 -0.171875,0.703125 -0.40625,1.0625 -0.578125,1.625 -0.578125,2.09375 0,0.890625 0.625,1.1875 1.21875,1.1875 0.390625,0 0.71875,-0.171875 1,-0.453125 -0.125,0.515625 -0.25,1.015625 -0.640625,1.546875 -0.265625,0.328125 -0.640625,0.625 -1.09375,0.625 -0.140625,0 -0.59375,-0.03125 -0.765625,-0.421875 0.15625,0 0.296875,0 0.421875,-0.125 C 1.328125,1.203125 1.421875,1.0625 1.421875,0.875 1.421875,0.5625 1.15625,0.53125 1.0625,0.53125 0.828125,0.53125 0.5,0.6875 0.5,1.171875 c 0,0.5 0.4375,0.875 1.0625,0.875 1.015625,0 2.046875,-0.90625 2.328125,-2.03125 z m 0,0"
             id="id-272f50ca-b8fd-4d3a-918f-3afe42ca627f" />
        </g>
        <g
           id="id-8daa2fea-020f-46f4-a62e-431e3885228a">
          <path
             d="M 3.328125,-3.015625 C 3.390625,-3.265625 3.625,-4.1875 4.3125,-4.1875 c 0.046875,0 0.296875,0 0.5,0.125 C 4.53125,-4 4.34375,-3.765625 4.34375,-3.515625 c 0,0.15625 0.109375,0.34375 0.375,0.34375 0.21875,0 0.53125,-0.171875 0.53125,-0.578125 0,-0.515625 -0.578125,-0.65625 -0.921875,-0.65625 -0.578125,0 -0.921875,0.53125 -1.046875,0.75 -0.25,-0.65625 -0.78125,-0.75 -1.078125,-0.75 -1.03125,0 -1.609375,1.28125 -1.609375,1.53125 0,0.109375 0.109375,0.109375 0.125,0.109375 0.078125,0 0.109375,-0.03125 0.125,-0.109375 0.34375,-1.0625 1,-1.3125 1.34375,-1.3125 0.1875,0 0.53125,0.09375 0.53125,0.671875 0,0.3125 -0.171875,0.96875 -0.53125,2.375 -0.15625,0.609375 -0.515625,1.03125 -0.953125,1.03125 -0.0625,0 -0.28125,0 -0.5,-0.125 0.25,-0.0625 0.46875,-0.265625 0.46875,-0.546875 0,-0.265625 -0.21875,-0.34375 -0.359375,-0.34375 -0.3125,0 -0.546875,0.25 -0.546875,0.578125 0,0.453125 0.484375,0.65625 0.921875,0.65625 0.671875,0 1.03125,-0.703125 1.046875,-0.75 0.125,0.359375 0.484375,0.75 1.078125,0.75 1.03125,0 1.59375,-1.28125 1.59375,-1.53125 0,-0.109375 -0.078125,-0.109375 -0.109375,-0.109375 -0.09375,0 -0.109375,0.046875 -0.140625,0.109375 -0.328125,1.078125 -1,1.3125 -1.3125,1.3125 -0.390625,0 -0.546875,-0.3125 -0.546875,-0.65625 0,-0.21875 0.046875,-0.4375 0.15625,-0.875 z m 0,0"
             id="id-6b5d8ed3-9790-46bc-ab9e-651b87eb1bd7" />
        </g>
        <g
           id="id-84979a03-b2f1-48ec-95ba-955cf5cf6d71">
          <path
             d="M 3.515625,-1.265625 H 3.28125 c -0.015625,0.15625 -0.09375,0.5625 -0.1875,0.625 C 3.046875,-0.59375 2.515625,-0.59375 2.40625,-0.59375 H 1.125 c 0.734375,-0.640625 0.984375,-0.84375 1.390625,-1.171875 0.515625,-0.40625 1,-0.84375 1,-1.5 0,-0.84375 -0.734375,-1.359375 -1.625,-1.359375 -0.859375,0 -1.453125,0.609375 -1.453125,1.25 0,0.34375 0.296875,0.390625 0.375,0.390625 0.15625,0 0.359375,-0.125 0.359375,-0.375 0,-0.125 -0.046875,-0.375 -0.40625,-0.375 C 0.984375,-4.21875 1.453125,-4.375 1.78125,-4.375 c 0.703125,0 1.0625,0.546875 1.0625,1.109375 0,0.609375 -0.4375,1.078125 -0.65625,1.328125 L 0.515625,-0.265625 C 0.4375,-0.203125 0.4375,-0.1875 0.4375,0 h 2.875 z m 0,0"
             id="id-9c92f4be-8a5f-432c-9633-6f2b4c6704f7" />
        </g>
        <g
           id="id-2a45b046-7ae7-4525-9741-b0ce282b9537">
          <path
             d="m 6.5625,-2.296875 c 0.171875,0 0.359375,0 0.359375,-0.203125 0,-0.1875 -0.1875,-0.1875 -0.359375,-0.1875 H 1.171875 c -0.171875,0 -0.34375,0 -0.34375,0.1875 0,0.203125 0.171875,0.203125 0.34375,0.203125 z m 0,0"
             id="id-ff994d63-ef70-4b4a-9d2a-3720742d9cb6" />
        </g>
      </g>
    </defs>
  </defs>
  <g
     id="g1"
     inkscape:groupmode="layer"
     inkscape:label="1"
     transform="translate(-10.2858, 4.29687)">
    <path
       id="path1"
       d="m 36.19001,116.99558 v -5.66687 m 25.904173,5.66687 v -5.66687 m 25.904159,5.66687 v -5.66687 m 25.904178,5.66687 v -5.66687 m 51.80834,5.66687 v -5.66687 m 25.90417,5.66687 v -5.66687 m 25.90418,5.66687 v -5.66687 m 25.90416,5.66687 v -5.66687"
       style="fill:none;stroke:#808080;stroke-width:0.265667;stroke-linecap:butt;stroke-linejoin:miter;stroke-miterlimit:10;stroke-dasharray:none;stroke-opacity:1"
       sodipodi:nodetypes="cccccccccccccccc" />
    <path
       id="path2"
       d="m 153.29901,16.13968 h 4.252 m -4.252,16.13968 h 4.252 m -4.252,16.13968 h 4.252 m -4.252,16.13968 h 4.252 m -4.252,32.27937 h 4.252 m -4.252,16.13968 h 4.252 m -4.252,16.13968 h 4.252 m -4.252,16.13968 h 4.252"
       style="fill:none;stroke:#808080;stroke-width:0.19925;stroke-linecap:butt;stroke-linejoin:miter;stroke-miterlimit:10;stroke-dasharray:none;stroke-opacity:1"
       transform="matrix(1.3333333,0,0,-1.3333333,-67.426667,221.76)"
       sodipodi:nodetypes="cccccccccccccccc" />
    <path
       id="path3"
       d="M 58.28438,80.69841 H 250.57314"
       style="fill:none;stroke:#000000;stroke-width:0.3985;stroke-linecap:butt;stroke-linejoin:miter;stroke-miterlimit:10;stroke-dasharray:none;stroke-opacity:1"
       transform="matrix(1.3333333,0,0,-1.3333333,-67.426667,221.76)" />
    <path
       id="path4"
       d="M 1.99252,0 -1.19551,1.59401 0,0 -1.19551,-1.59401"
       style="fill:#000000;fill-opacity:1;fill-rule:nonzero;stroke:none"
       transform="matrix(1.3333333,0,0,-1.3333333,266.67085,114.16212)" />
    <path
       id="path5"
       d="M 155.42502,0 V 159.4043"
       style="fill:none;stroke:#000000;stroke-width:0.3985;stroke-linecap:butt;stroke-linejoin:miter;stroke-miterlimit:10;stroke-dasharray:none;stroke-opacity:1"
       transform="matrix(1.3333333,0,0,-1.3333333,-67.426667,221.76)" />
    <path
       id="path6"
       d="M 1.99252,0 -1.19551,1.59401 0,0 -1.19551,-1.59401"
       style="fill:#000000;fill-opacity:1;fill-rule:nonzero;stroke:none"
       transform="matrix(0,-1.3333333,-1.3333333,0,139.80669,9.2209333)" />
    <g
       id="g8"
       aria-label="−4"
       transform="matrix(1.3333333,0,0,1.3333333,30.330667,126.11733)">
      <path
         id="path9"
         d="m 4.3838359,-1.1016719 c 0.082031,0 0.2109375,0 0.2109375,-0.140625 0,-0.140625 -0.1289062,-0.140625 -0.2109375,-0.140625 h -3.375 c -0.0820312,0 -0.21093746,0 -0.21093746,0.140625 0,0.140625 0.12890625,0.140625 0.21093746,0.140625 z m 0,0"
         style="fill:#000000;fill-opacity:1;fill-rule:nonzero;stroke:none" />
      <path
         id="path10"
         d="M 8.4678203,-0.80870312 V -1.0313594 H 7.8467266 v -2.1914062 c 0,-0.1171875 0,-0.1523438 -0.1289063,-0.1523438 -0.1054687,0 -0.1054687,0.011719 -0.1640625,0.082031 l -1.8398437,2.2617187 v 0.22265628 h 1.6523437 v 0.38671875 c 0,0.15234375 0,0.19921875 -0.4335937,0.19921875 H 6.7568828 v 0.222656245 c 0.234375,-0.011718745 0.5625,-0.023437495 0.8554688,-0.023437495 0.28125,0 0.609375,0.01171875 0.84375,0.023437495 V -0.22276562 H 8.2803203 c -0.4335937,0 -0.4335937,-0.046875 -0.4335937,-0.19921875 V -0.80870312 Z M 7.4131328,-2.8360469 v 1.8046875 H 5.9482891 Z m 0,0"
         style="fill:#000000;fill-opacity:1;fill-rule:nonzero;stroke:none" />
    </g>
    <g
       id="g10"
       aria-label="−3"
       transform="matrix(1.3333333,0,0,1.3333333,56.234667,126.11733)">
      <path
         id="path11"
         d="m 4.3825937,-1.1016719 c 0.082031,0 0.2109375,0 0.2109375,-0.140625 0,-0.140625 -0.1289062,-0.140625 -0.2109375,-0.140625 h -3.375 c -0.0820312,0 -0.21093745,0 -0.21093745,0.140625 0,0.140625 0.12890625,0.140625 0.21093745,0.140625 z m 0,0"
         style="fill:#000000;fill-opacity:1;fill-rule:nonzero;stroke:none" />
      <path
         id="path12"
         d="m 7.0368906,-1.6524531 c 0.4570313,0 0.7617188,0.2929687 0.7617188,0.78515623 0,0.50390625 -0.3046875,0.7734375 -0.75,0.7734375 -0.058594,0 -0.65625,0 -0.9023438,-0.2578125 0.1992188,-0.0351563 0.2578125,-0.1875 0.2578125,-0.3046875 0,-0.1875 -0.140625,-0.3046875 -0.3046875,-0.3046875 -0.1523437,0 -0.3046875,0.10546875 -0.3046875,0.31640625 0,0.515625 0.5859375,0.75 1.265625,0.75 0.8203125,0 1.3242188,-0.4921875 1.3242188,-0.97265625 0,-0.41015623 -0.3632813,-0.76171873 -0.9257813,-0.89062503 0.5976563,-0.1875 0.75,-0.5625 0.75,-0.84375 0,-0.4101562 -0.5039062,-0.7148437 -1.1367187,-0.7148437 -0.609375,0 -1.1015625,0.2578125 -1.1015625,0.703125 0,0.234375 0.1875,0.2929687 0.28125,0.2929687 0.140625,0 0.28125,-0.1054687 0.28125,-0.28125 0,-0.1171875 -0.058594,-0.2578125 -0.234375,-0.28125 0.2109375,-0.234375 0.65625,-0.2460937 0.7617187,-0.2460937 0.3632813,0 0.6210938,0.1875 0.6210938,0.5273437 0,0.28125 -0.1875,0.7382813 -0.7148438,0.7734375 -0.140625,0 -0.1523437,0 -0.28125,0.011719 -0.058594,0 -0.1171875,0.011719 -0.1171875,0.082031 0,0.082031 0.058594,0.082031 0.140625,0.082031 z m 0,0"
         style="fill:#000000;fill-opacity:1;fill-rule:nonzero;stroke:none" />
    </g>
    <g
       id="g12"
       aria-label="−2"
       transform="matrix(1.3333333,0,0,1.3333333,82.138667,126.11733)">
      <path
         id="path13"
         d="m 4.3813516,-1.1016719 c 0.082031,0 0.2109375,0 0.2109375,-0.140625 0,-0.140625 -0.1289063,-0.140625 -0.2109375,-0.140625 h -3.375 c -0.0820313,0 -0.21093754,0 -0.21093754,0.140625 0,0.140625 0.12890625,0.140625 0.21093754,0.140625 z m 0,0"
         style="fill:#000000;fill-opacity:1;fill-rule:nonzero;stroke:none" />
      <path
         id="path14"
         d="M 8.3276406,-0.96104687 H 8.1167031 c -0.011719,0.09375 -0.058594,0.3984375 -0.140625,0.45703125 -0.035156,0.0234375 -0.4570312,0.0234375 -0.5273437,0.0234375 h -0.984375 c 0.328125,-0.24609375 0.703125,-0.515625 0.9960937,-0.71484378 0.4570313,-0.3164062 0.8671875,-0.5976562 0.8671875,-1.125 0,-0.6445312 -0.5976562,-0.9960937 -1.3125,-0.9960937 -0.6679687,0 -1.1601562,0.3867187 -1.1601562,0.8789062 0,0.2578125 0.2109375,0.3046875 0.28125,0.3046875 0.140625,0 0.2929687,-0.09375 0.2929687,-0.2929687 0,-0.1875 -0.1289062,-0.28125 -0.28125,-0.2929688 0.140625,-0.234375 0.4335938,-0.375 0.7617188,-0.375 0.4804687,0 0.890625,0.28125 0.890625,0.7734375 0,0.421875 -0.2929688,0.7382813 -0.6796875,1.0546875 l -1.2070313,1.03125003 c -0.046875,0.046875 -0.058594,0.046875 -0.058594,0.0820313 v 0.152343745 h 2.3085937 z m 0,0"
         style="fill:#000000;fill-opacity:1;fill-rule:nonzero;stroke:none" />
    </g>
    <g
       id="g14"
       aria-label="−1"
       transform="matrix(1.3333333,0,0,1.3333333,108.04267,126.11733)">
      <path
         id="path15"
         d="m 4.3830391,-1.1016719 c 0.082031,0 0.2109375,0 0.2109375,-0.140625 0,-0.140625 -0.1289063,-0.140625 -0.2109375,-0.140625 h -3.375 c -0.0820313,0 -0.21093754,0 -0.21093754,0.140625 0,0.140625 0.12890625,0.140625 0.21093754,0.140625 z m 0,0"
         style="fill:#000000;fill-opacity:1;fill-rule:nonzero;stroke:none" />
      <path
         id="path16"
         d="m 7.3771797,-3.1641719 c 0,-0.1523437 -0.011719,-0.1523437 -0.1757813,-0.1523437 -0.3515625,0.3164062 -0.9023437,0.3164062 -1.0078125,0.3164062 h -0.082031 v 0.2226563 h 0.082031 c 0.1171875,0 0.4335938,-0.011719 0.7265625,-0.140625 v 2.48437498 c 0,0.1640625 0,0.2109375 -0.5273437,0.2109375 H 6.1467109 V -1.09375e-4 C 6.4162422,-0.02354687 6.8615547,-0.02354687 7.1545234,-0.02354687 c 0.28125,0 0.7265625,0 0.9960938,0.023437495 V -0.22276562 H 7.9045234 c -0.5273437,0 -0.5273437,-0.046875 -0.5273437,-0.2109375 z m 0,0"
         style="fill:#000000;fill-opacity:1;fill-rule:nonzero;stroke:none" />
    </g>
    <path
       id="path17"
       d="m 1.9813828,-3.1655 c 0,-0.1523437 -0.011719,-0.1523437 -0.1757812,-0.1523437 -0.3515625,0.3164062 -0.90234379,0.3164062 -1.00781254,0.3164062 h -0.0820313 v 0.2226563 h 0.0820313 c 0.1171875,0 0.43359374,-0.011719 0.72656254,-0.140625 v 2.48437495 c 0,0.1640625 0,0.2109375 -0.52734379,0.2109375 H 0.75091406 V -0.0014375 C 1.0204453,-0.024875 1.4657578,-0.024875 1.7587266,-0.024875 c 0.28125,0 0.7265625,0 0.9960937,0.0234375 V -0.22409375 H 2.5087266 c -0.5273438,0 -0.5273438,-0.046875 -0.5273438,-0.2109375 z m 0,0"
       style="fill:#000000;fill-opacity:1;fill-rule:nonzero;stroke:none"
       aria-label="1"
       transform="matrix(1.3333333,0,0,1.3333333,163.448,125.97067)" />
    <path
       id="path18"
       d="M 2.9293594,-0.962375 H 2.7184219 c -0.011719,0.09375 -0.058594,0.3984375 -0.140625,0.45703125 -0.035156,0.0234375 -0.4570313,0.0234375 -0.5273438,0.0234375 H 1.0660781 C 1.3942031,-0.728 1.7692031,-0.99753125 2.0621719,-1.19675 c 0.4570312,-0.3164062 0.8671875,-0.5976562 0.8671875,-1.125 0,-0.6445312 -0.5976563,-0.9960937 -1.3125,-0.9960937 -0.66796877,0 -1.16015627,0.3867187 -1.16015627,0.8789062 0,0.2578125 0.2109375,0.3046875 0.28125,0.3046875 0.140625,0 0.29296877,-0.09375 0.29296877,-0.2929687 0,-0.1875 -0.12890627,-0.28125 -0.28125002,-0.2929688 0.140625,-0.234375 0.43359372,-0.375 0.76171872,-0.375 0.4804688,0 0.890625,0.28125 0.890625,0.7734375 0,0.421875 -0.2929687,0.7382813 -0.6796875,1.0546875 l -1.20703122,1.03125 c -0.046875,0.046875 -0.0585937,0.046875 -0.0585937,0.0820313 v 0.1523437 H 2.7652969 Z m 0,0"
       style="fill:#000000;fill-opacity:1;fill-rule:nonzero;stroke:none"
       aria-label="2"
       transform="matrix(1.3333333,0,0,1.3333333,189.352,125.97067)" />
    <path
       id="path19"
       d="m 1.6419844,-1.6537812 c 0.4570312,0 0.7617187,0.2929687 0.7617187,0.7851562 0,0.50390625 -0.3046875,0.7734375 -0.75,0.7734375 -0.058594,0 -0.65624997,0 -0.90234372,-0.2578125 0.19921875,-0.0351563 0.25781252,-0.1875 0.25781252,-0.3046875 0,-0.1875 -0.14062502,-0.3046875 -0.30468752,-0.3046875 -0.15234375,0 -0.3046875,0.10546875 -0.3046875,0.31640625 0,0.515625 0.5859375,0.75 1.26562502,0.75 0.8203125,0 1.3242187,-0.4921875 1.3242187,-0.97265625 0,-0.4101562 -0.3632812,-0.7617187 -0.9257812,-0.890625 0.5976562,-0.1875 0.75,-0.5625 0.75,-0.84375 0,-0.4101562 -0.5039063,-0.7148437 -1.1367188,-0.7148437 -0.609375,0 -1.10156247,0.2578125 -1.10156247,0.703125 0,0.234375 0.1875,0.2929687 0.28125,0.2929687 0.140625,0 0.28124997,-0.1054687 0.28124997,-0.28125 0,-0.1171875 -0.058594,-0.2578125 -0.23437497,-0.28125 0.21093747,-0.234375 0.65624997,-0.2460937 0.76171877,-0.2460937 0.3632812,0 0.6210937,0.1875 0.6210937,0.5273437 0,0.28125 -0.1875,0.7382813 -0.7148437,0.7734375 -0.140625,0 -0.1523438,0 -0.28125,0.011719 -0.058594,0 -0.1171875,0.011719 -0.1171875,0.082031 0,0.082031 0.058594,0.082031 0.140625,0.082031 z m 0,0"
       style="fill:#000000;fill-opacity:1;fill-rule:nonzero;stroke:none"
       aria-label="3"
       transform="matrix(1.3333333,0,0,1.3333333,215.256,125.97067)" />
    <path
       id="path20"
       d="M 3.0704297,-0.81003125 V -1.0326875 H 2.4493359 v -2.1914062 c 0,-0.1171875 0,-0.1523438 -0.1289062,-0.1523438 -0.1054688,0 -0.1054688,0.011719 -0.1640625,0.082031 l -1.83984376,2.2617187 v 0.22265625 H 1.9688672 v 0.38671875 c 0,0.15234375 0,0.19921875 -0.4335938,0.19921875 H 1.3594922 v 0.22265625 c 0.234375,-0.01171875 0.5625,-0.0234375 0.8554687,-0.0234375 0.28125,0 0.609375,0.01171875 0.84375,0.0234375 V -0.22409375 H 2.8829297 c -0.4335938,0 -0.4335938,-0.046875 -0.4335938,-0.19921875 V -0.81003125 Z M 2.0157422,-2.837375 v 1.8046875 H 0.55089844 Z m 0,0"
       style="fill:#000000;fill-opacity:1;fill-rule:nonzero;stroke:none"
       aria-label="4"
       transform="matrix(1.3333333,0,0,1.3333333,241.16,125.97067)" />
    <g
       id="g23"
       aria-label="−4"
       transform="matrix(1.3333333,0,0,1.3333333,120.56133,201.90133)">
      <path
         id="path24"
         d="m 4.3836875,-1.1008047 c 0.082031,0 0.2109375,0 0.2109375,-0.140625 0,-0.140625 -0.1289063,-0.140625 -0.2109375,-0.140625 h -3.375 c -0.0820313,0 -0.2109375,0 -0.2109375,0.140625 0,0.140625 0.12890625,0.140625 0.2109375,0.140625 z m 0,0"
         style="fill:#000000;fill-opacity:1;fill-rule:nonzero;stroke:none" />
      <path
         id="path25"
         d="M 8.4676719,-0.80783594 V -1.0304922 H 7.8465781 v -2.1914062 c 0,-0.1171875 0,-0.1523438 -0.1289062,-0.1523438 -0.1054688,0 -0.1054688,0.011719 -0.1640625,0.082031 l -1.8398438,2.2617187 v 0.22265626 h 1.6523438 v 0.38671875 c 0,0.15234375 0,0.19921875 -0.4335938,0.19921875 H 6.7567344 V 7.578125e-4 c 0.234375,-0.0117187525 0.5625,-0.0234375025 0.8554687,-0.0234375025 0.28125,0 0.609375,0.01171875 0.84375,0.0234375025 V -0.22189844 H 8.2801719 c -0.4335938,0 -0.4335938,-0.046875 -0.4335938,-0.19921875 V -0.80783594 Z M 7.4129844,-2.8351797 v 1.8046875 H 5.9481406 Z m 0,0"
         style="fill:#000000;fill-opacity:1;fill-rule:nonzero;stroke:none" />
    </g>
    <g
       id="g25"
       aria-label="−3"
       transform="matrix(1.3333333,0,0,1.3333333,120.56133,180.38133)">
      <path
         id="path26"
         d="m 4.3836875,-1.1004531 c 0.082031,0 0.2109375,0 0.2109375,-0.140625 0,-0.140625 -0.1289063,-0.140625 -0.2109375,-0.140625 h -3.375 c -0.0820313,0 -0.2109375,0 -0.2109375,0.140625 0,0.140625 0.12890625,0.140625 0.2109375,0.140625 z m 0,0"
         style="fill:#000000;fill-opacity:1;fill-rule:nonzero;stroke:none" />
      <path
         id="path27"
         d="m 7.0379844,-1.6512344 c 0.4570312,0 0.7617187,0.2929688 0.7617187,0.78515628 0,0.50390625 -0.3046875,0.7734375 -0.75,0.7734375 -0.058594,0 -0.65625,0 -0.9023437,-0.2578125 0.1992187,-0.0351563 0.2578125,-0.1875 0.2578125,-0.3046875 0,-0.1875 -0.140625,-0.3046875 -0.3046875,-0.3046875 -0.1523438,0 -0.3046875,0.10546875 -0.3046875,0.31640625 0,0.515625 0.5859375,0.75 1.265625,0.75 0.8203125,0 1.3242187,-0.4921875 1.3242187,-0.97265625 0,-0.41015628 -0.3632812,-0.76171878 -0.9257812,-0.89062498 0.5976562,-0.1875 0.75,-0.5625 0.75,-0.84375 0,-0.4101563 -0.5039063,-0.7148438 -1.1367188,-0.7148438 -0.609375,0 -1.1015625,0.2578125 -1.1015625,0.703125 0,0.234375 0.1875,0.2929688 0.28125,0.2929688 0.140625,0 0.28125,-0.1054688 0.28125,-0.28125 0,-0.1171875 -0.058594,-0.2578125 -0.234375,-0.28125 0.2109375,-0.234375 0.65625,-0.2460938 0.7617188,-0.2460938 0.3632812,0 0.6210937,0.1875 0.6210937,0.5273438 0,0.28125 -0.1875,0.7382812 -0.7148437,0.7734375 -0.140625,0 -0.1523438,0 -0.28125,0.011719 -0.058594,0 -0.1171875,0.011719 -0.1171875,0.082031 0,0.082031 0.058594,0.082031 0.140625,0.082031 z m 0,0"
         style="fill:#000000;fill-opacity:1;fill-rule:nonzero;stroke:none" />
    </g>
    <g
       id="g27"
       aria-label="−2"
       transform="matrix(1.3333333,0,0,1.3333333,120.56133,158.86267)">
      <path
         id="path28"
         d="m 4.3836875,-1.1011016 c 0.082031,0 0.2109375,0 0.2109375,-0.140625 0,-0.140625 -0.1289063,-0.140625 -0.2109375,-0.140625 h -3.375 c -0.0820313,0 -0.2109375,0 -0.2109375,0.140625 0,0.140625 0.12890625,0.140625 0.2109375,0.140625 z m 0,0"
         style="fill:#000000;fill-opacity:1;fill-rule:nonzero;stroke:none" />
      <path
         id="path29"
         d="M 8.3270469,-0.96047656 H 8.1161094 c -0.011719,0.09375 -0.058594,0.3984375 -0.140625,0.45703125 -0.035156,0.0234375 -0.4570313,0.0234375 -0.5273438,0.0234375 h -0.984375 c 0.328125,-0.24609375 0.703125,-0.515625 0.9960938,-0.71484379 0.4570312,-0.3164062 0.8671875,-0.5976562 0.8671875,-1.125 0,-0.6445312 -0.5976563,-0.9960937 -1.3125,-0.9960937 -0.6679688,0 -1.1601563,0.3867187 -1.1601563,0.8789062 0,0.2578125 0.2109375,0.3046875 0.28125,0.3046875 0.140625,0 0.2929688,-0.09375 0.2929688,-0.2929687 0,-0.1875 -0.1289063,-0.28125 -0.28125,-0.2929688 0.140625,-0.234375 0.4335937,-0.375 0.7617187,-0.375 0.4804688,0 0.890625,0.28125 0.890625,0.7734375 0,0.421875 -0.2929687,0.7382813 -0.6796875,1.0546875 l -1.2070312,1.03125004 c -0.046875,0.046875 -0.058594,0.046875 -0.058594,0.0820313 V 4.609375e-4 h 2.3085938 z m 0,0"
         style="fill:#000000;fill-opacity:1;fill-rule:nonzero;stroke:none" />
    </g>
    <g
       id="g29"
       aria-label="−1"
       transform="matrix(1.3333333,0,0,1.3333333,120.56133,137.34267)">
      <path
         id="path30"
         d="m 4.3836875,-1.10075 c 0.082031,0 0.2109375,0 0.2109375,-0.140625 C 4.594625,-1.382 4.4657187,-1.382 4.3836875,-1.382 h -3.375 c -0.0820313,0 -0.2109375,0 -0.2109375,0.140625 0,0.140625 0.12890625,0.140625 0.2109375,0.140625 z m 0,0"
         style="fill:#000000;fill-opacity:1;fill-rule:nonzero;stroke:none" />
      <path
         id="path31"
         d="m 7.3778281,-3.16325 c 0,-0.1523437 -0.011719,-0.1523437 -0.1757812,-0.1523437 -0.3515625,0.3164062 -0.9023438,0.3164062 -1.0078125,0.3164062 h -0.082031 v 0.2226563 h 0.082031 c 0.1171875,0 0.4335937,-0.011719 0.7265625,-0.140625 v 2.48437495 c 0,0.1640625 0,0.2109375 -0.5273438,0.2109375 H 6.1473594 V 8.125e-4 C 6.4168906,-0.022625 6.8622031,-0.022625 7.1551719,-0.022625 c 0.28125,0 0.7265625,0 0.9960937,0.0234375 V -0.22184375 H 7.9051719 c -0.5273438,0 -0.5273438,-0.046875 -0.5273438,-0.2109375 z m 0,0"
         style="fill:#000000;fill-opacity:1;fill-rule:nonzero;stroke:none" />
    </g>
    <path
       id="path32"
       d="m 1.9818281,-3.1631953 c 0,-0.1523438 -0.011719,-0.1523438 -0.1757812,-0.1523438 -0.3515625,0.3164063 -0.90234378,0.3164063 -1.00781253,0.3164063 h -0.0820313 v 0.2226562 h 0.0820313 c 0.1171875,0 0.43359373,-0.011719 0.72656253,-0.140625 v 2.48437504 c 0,0.1640625 0,0.2109375 -0.52734378,0.2109375 H 0.75135937 V 8.671875e-4 C 1.0208906,-0.02257031 1.4662031,-0.02257031 1.7591719,-0.02257031 c 0.28125,0 0.7265625,0 0.9960937,0.0234374975 V -0.22178906 H 2.5091719 c -0.5273438,0 -0.5273438,-0.046875 -0.5273438,-0.2109375 z m 0,0"
       style="fill:#000000;fill-opacity:1;fill-rule:nonzero;stroke:none"
       aria-label="1"
       transform="matrix(1.3333333,0,0,1.3333333,127.756,94.784)" />
    <path
       id="path33"
       d="M 2.9310469,-0.96071875 H 2.7201094 c -0.011719,0.09375 -0.058594,0.3984375 -0.140625,0.45703125 C 2.5443281,-0.48025 2.1224531,-0.48025 2.0521406,-0.48025 h -0.984375 c 0.328125,-0.24609375 0.703125,-0.515625 0.9960938,-0.7148437 0.4570312,-0.3164063 0.8671875,-0.5976563 0.8671875,-1.125 0,-0.6445313 -0.5976563,-0.9960938 -1.3125,-0.9960938 -0.66796878,0 -1.16015628,0.3867188 -1.16015628,0.8789063 0,0.2578125 0.2109375,0.3046875 0.28125,0.3046875 0.140625,0 0.29296878,-0.09375 0.29296878,-0.2929688 0,-0.1875 -0.12890628,-0.28125 -0.28125003,-0.2929687 0.140625,-0.234375 0.43359373,-0.375 0.76171873,-0.375 0.4804688,0 0.890625,0.28125 0.890625,0.7734375 0,0.421875 -0.2929687,0.7382812 -0.6796875,1.0546875 l -1.20703123,1.03124995 c -0.046875,0.046875 -0.0585937,0.046875 -0.0585937,0.0820313 V 2.1875e-4 H 2.7669844 Z m 0,0"
       style="fill:#000000;fill-opacity:1;fill-rule:nonzero;stroke:none"
       aria-label="2"
       transform="matrix(1.3333333,0,0,1.3333333,127.756,73.265333)" />
    <path
       id="path34"
       d="m 1.6419844,-1.6517734 c 0.4570312,0 0.7617187,0.2929687 0.7617187,0.78515621 0,0.50390625 -0.3046875,0.7734375 -0.75,0.7734375 -0.058594,0 -0.65624998,0 -0.90234373,-0.2578125 0.19921875,-0.0351563 0.25781253,-0.1875 0.25781253,-0.3046875 0,-0.1875 -0.14062503,-0.3046875 -0.30468753,-0.3046875 -0.15234375,0 -0.3046875,0.10546875 -0.3046875,0.31640625 0,0.515625 0.5859375,0.75 1.26562503,0.75 0.8203125,0 1.3242187,-0.4921875 1.3242187,-0.97265625 0,-0.41015621 -0.3632812,-0.76171871 -0.9257812,-0.89062501 0.5976562,-0.1875 0.75,-0.5625 0.75,-0.84375 0,-0.4101562 -0.5039063,-0.7148437 -1.1367188,-0.7148437 -0.609375,0 -1.10156248,0.2578125 -1.10156248,0.703125 0,0.234375 0.1875,0.2929687 0.28125,0.2929687 0.140625,0 0.28124998,-0.1054687 0.28124998,-0.28125 0,-0.1171875 -0.058594,-0.2578125 -0.23437498,-0.28125 0.21093748,-0.234375 0.65624998,-0.2460937 0.76171878,-0.2460937 0.3632812,0 0.6210937,0.1875 0.6210937,0.5273437 0,0.28125 -0.1875,0.7382813 -0.7148437,0.7734375 -0.140625,0 -0.1523438,0 -0.28125,0.011719 -0.058594,0 -0.1171875,0.011719 -0.1171875,0.082031 0,0.082031 0.058594,0.082031 0.140625,0.082031 z m 0,0"
       style="fill:#000000;fill-opacity:1;fill-rule:nonzero;stroke:none"
       aria-label="3"
       transform="matrix(1.3333333,0,0,1.3333333,127.756,51.745333)" />
    <path
       id="path35"
       d="M 3.0716719,-0.80867187 V -1.0313281 H 2.4505781 v -2.1914063 c 0,-0.1171875 0,-0.1523437 -0.1289062,-0.1523437 -0.1054688,0 -0.1054688,0.011719 -0.1640625,0.082031 l -1.83984378,2.2617188 v 0.22265623 H 1.9701094 v 0.38671875 c 0,0.15234375 0,0.19921875 -0.4335938,0.19921875 H 1.3607344 V -7.8125e-5 c 0.234375,-0.011718745 0.5625,-0.023437495 0.8554687,-0.023437495 0.28125,0 0.609375,0.01171875 0.84375,0.023437495 V -0.22273437 H 2.8841719 c -0.4335938,0 -0.4335938,-0.046875 -0.4335938,-0.19921875 V -0.80867187 Z M 2.0169844,-2.8360156 v 1.8046875 H 0.55214062 Z m 0,0"
       style="fill:#000000;fill-opacity:1;fill-rule:nonzero;stroke:none"
       aria-label="4"
       transform="matrix(1.3333333,0,0,1.3333333,127.756,30.226667)" />
    <path
       id="path37"
       d="m 0,2388.6729 1.0396,-29.2719 1.03961,-29.0866 1.03963,-28.9021 1.03961,-28.7172 1.03961,-28.5324 1.03963,-28.3464 1.03961,-28.1627 1.03963,-27.9779 1.03961,-27.7926 1.03961,-27.608 1.03963,-27.4229 1.03961,-27.2387 1.03962,-27.0535 1.0396,-26.868 1.03961,-26.6831 1.03963,-26.4988 1.03961,-26.3142 1.03961,-26.1287 1.03963,-25.9443 1.03961,-25.7595 1.03963,-25.5747 1.03961,-25.3896 1.03961,-25.2045 1.03963,-25.0202 1.03961,-24.8351 1.03963,-24.6496 1.0396,-24.4651 1.03961,-24.281 1.03962,-24.0952 1.03962,-23.9108 1.03961,-23.7259 1.03963,-23.5411 1.03961,-23.3564 1.03962,-23.1713 1.03962,-22.9858 1.03961,-22.8018 1.03962,-22.6167 1.03962,-22.4319 1.03962,-22.247 1.0396,-22.0625 1.03961,-21.8773 1.03963,-21.6926 1.03961,-21.5075 1.03961,-21.3224 1.03963,-21.1381 1.03961,-20.9528 1.03963,-20.7681 1.03961,-20.5832 1.03962,-20.3987 1.03962,-20.2135 1.03961,-20.0288 1.03963,-19.8441 1.0396,-19.6587 1.03961,-19.4742 1.03963,-19.289 1.0396,-19.1043 1.03962,-18.9193 1.03962,-18.73495 1.03962,-18.55018 1.03962,-18.36501 1.03962,-18.18028 1.0396,-17.99486 1.03963,-17.81039 1.03962,-17.62569 1.03962,-17.44098 1.0396,-17.25505 1.03961,-17.07107 1.03963,-16.88639 1.03961,-16.70118 1.03961,-16.51648 1.03963,-16.33153 1.03961,-16.14656 1.03963,-15.96237 1.03961,-15.77668 1.03961,-15.59173 1.03963,-15.40727 1.03961,-15.22257 1.03963,-15.03737 1.03959,-14.85315 1.03962,-14.66772 1.03962,-14.48276 1.03962,-14.29805 1.03962,-14.11337 1.03961,-13.92865 1.03962,-13.74321 1.03962,-13.55875 1.03961,-13.37356 1.03962,-13.18933 1.03962,-13.00391 1.03962,-12.81894 1.03962,-12.63475 1.0396,-12.44954 1.03961,-12.26459 1.03963,-12.07988 1.03961,-11.89445 1.03963,-11.71024 1.03961,-11.52528 1.03961,-11.34033 1.03963,-11.15563 1.03961,-10.97069 1.03967,-10.78622 1.03954,-10.60004 1.03967,-10.41681 1.03952,-10.23014 1.03967,-10.04715 1.03968,-9.86173 1.03953,-9.67576 1.03968,-9.49256 1.03953,-9.30614 1.03967,-9.12265 1.03968,-8.93769 1.03953,-8.75154 1.03967,-8.56804 1.03951,-8.38163 1.03971,-8.19839 1.03967,-8.01344 1.03952,-7.82726 1.03967,-7.64355 1.03952,-7.45786 1.03969,-7.27388 1.03967,-7.08895 1.03954,-6.90324 1.03967,-6.7193 1.03952,-6.53334 1.03969,-6.34938 1.03967,-6.16494 1.03952,-5.97873 1.03969,-5.79503 1.0395,-5.60933 1.03971,-5.42514 1.03967,-5.24042 1.0395,-5.05473 1.03969,-4.87052 1.03952,-4.68509 1.03969,-4.50087 1.03968,-4.31591 1.03951,-4.13047 1.03969,-3.94626 1.03952,-3.76081 1.03968,-3.57662 1.03968,-3.39166 1.03951,-3.20622 1.0397,-3.02199 1.03951,-2.83658 1.03967,-2.65208 1.03969,-2.46741 1.03952,-2.28195 1.03969,-2.09775 1.03952,-1.91231 1.03967,-1.72784 1.03969,-1.54289 1.03952,-1.35795 1.03967,-1.17324 1.03952,-0.98804 1.03969,-0.80359 1.03969,-0.61864 1.0395,-0.43367 1.03967,-0.24875 1.03954,-0.06402 1.03967,0.12092 1.03969,0.30562 1.03952,0.49059 1.03967,0.6755 1.03954,0.86023 1.03967,1.04519 1.03968,1.23013 1.03953,1.41484 1.03968,1.59978 1.03951,1.78448 1.03968,1.96943 1.03969,2.1544 1.03952,2.33908 1.03967,2.52405 1.03953,2.70874 1.03968,2.89395 1.03967,3.07888 1.03953,3.2631 1.03968,3.44856 1.03954,3.63275 1.03967,3.81821 1.03967,4.00316 1.03952,4.18734 1.03967,4.37307 1.03952,4.55676 1.03969,4.7427 1.03967,4.92742 1.03952,5.11162 1.03969,5.2973 1.03952,5.48129 1.03969,5.66696 1.03967,5.85192 1.03952,6.03589 1.03971,6.22155 1.03949,6.40529 1.0397,6.59148 1.03969,6.77617 1.03949,6.9599 1.03967,7.14583 1.03953,7.32978 1.0397,7.51574 1.03967,7.70043 1.03953,7.8844 1.03969,8.07008 1.03949,8.2538 1.03969,8.44 1.03967,8.62495 1.03952,8.80839 1.03969,8.99459 1.03954,9.17808 1.03967,9.36425 1.03967,9.54944 1.03952,9.73292 1.0397,9.91884 1.03951,10.10232 1.03969,10.2885 1.03969,10.47395 1.03949,10.65644 1.03968,10.84337 1.03954,11.02682 1.03967,11.21253 1.03969,11.39796 1.03951,11.58142 1.0397,11.76787 1.03949,11.95035 1.03967,12.13726 1.0397,12.32222 1.03951,12.50545 1.03967,12.69188 1.03955,12.87534 1.03968,13.06176 1.03968,13.24624 1.03953,13.42946 1.03967,13.61637 1.0395,13.79888 1.03972,13.98677 1.03966,14.17074 1.03952,14.35346 1.03967,14.54089 1.03952,14.72337 1.03971,14.9103 1.03965,15.09547 1.03954,15.27775 1.03969,15.46539 1.03949,15.64689 1.03967,15.8348 1.03969,16.01998 1.03953,16.20199 1.03967,16.38915 1.03956,16.5724 1.03967,16.7588 1.03967,16.944 1.03952,17.12651 1.03968,17.31366 1.0395,17.49591 1.03972,17.68381 1.03967,17.86851 1.03951,18.05 1.03967,18.2384 1.03953,18.42017 1.0397,18.60783 1.03967,18.7925 1.03953,18.975 1.03967,19.1624 1.03949,19.344 1.03969,19.5321 1.03967,19.717 1.03954,19.899 1.03969,20.0869 1.0395,20.269 1.03971,20.4561 1.03967,20.6415 1.03952,20.8235 1.03969,21.011 1.03949,21.1924 1.03969,21.3809 1.0397,21.5662 1.0395,21.7471 1.03969,21.9354 1.03951,22.1175 1.03967,22.3053 1.03971,22.4898 1.03951,22.6718 1.03969,22.8597 1.0395,23.041 1.03966,23.2294 1.03969,23.4145 1.03954,23.5961 1.03969,23.7839 1.03952,23.9658 1.03968,24.1538 1.03969,24.3391 1.03953,24.5201 1.03965,24.7084 1.03952,24.889 1.0397,25.0791 1.03966,25.2626 1.03954,25.4441 1.03966,25.633 1.03953,25.814"
       style="fill:none;stroke:#e86666;stroke-width:0.79701;stroke-linecap:butt;stroke-linejoin:miter;stroke-miterlimit:10;stroke-dasharray:none;stroke-opacity:1"
       transform="matrix(1.3333333,0,0,-1.3333333,-67.426667,221.76)"
       clip-path="url(#clipPath38)" />
    <path
       id="path39"
       d="M 165.13908,161.39682 V 0"
       style="fill:none;stroke:#000000;stroke-width:0.3985;stroke-linecap:butt;stroke-linejoin:miter;stroke-miterlimit:10;stroke-dasharray:2.98883, 2.98883;stroke-dashoffset:0;stroke-opacity:1"
       transform="matrix(1.3333333,0,0,-1.3333333,-67.426667,221.76)"
       clip-path="url(#clipPath40)" />
    <path
       id="path41"
       d="m 166.6335,56.48888 c 0,0.82534 -0.66907,1.49441 -1.49442,1.49441 -0.82534,0 -1.49441,-0.66907 -1.49441,-1.49441 0,-0.82535 0.66907,-1.49442 1.49441,-1.49442 0.82535,0 1.49442,0.66907 1.49442,1.49442 z"
       style="fill:#e56262;fill-opacity:1;fill-rule:nonzero;stroke:#d65151;stroke-width:0.3985;stroke-linecap:butt;stroke-linejoin:miter;stroke-miterlimit:10;stroke-dasharray:none;stroke-opacity:1"
       transform="matrix(1.3333333,0,0,-1.3333333,-67.426667,221.76)"
       clip-path="url(#clipPath42)" />
    <path
       id="path43"
       d="m 274.74285,113.65781 c 0.0583,-0.25674 0.29175,-1.16701 0.9803,-1.16701 0.0467,0 0.29175,0 0.50181,0.12836 -0.28009,0.0467 -0.47847,0.30343 -0.47847,0.53683 0,0.16339 0.10502,0.35011 0.37344,0.35011 0.22173,0 0.53683,-0.18672 0.53683,-0.58351 0,-0.51349 -0.58351,-0.65353 -0.92195,-0.65353 -0.57183,0 -0.92194,0.52516 -1.03864,0.75856 -0.25675,-0.65353 -0.78191,-0.75856 -1.07366,-0.75856 -1.03865,0 -1.59882,1.28372 -1.59882,1.5288 0,0.10502 0.10504,0.10502 0.1167,0.10502 0.0817,0 0.11671,-0.0233 0.12838,-0.1167 0.33843,-1.05031 0.99196,-1.29538 1.3304,-1.29538 0.18672,0 0.53683,0.0934 0.53683,0.66519 0,0.30343 -0.16338,0.96863 -0.53683,2.35738 -0.15172,0.61852 -0.50182,1.03865 -0.94529,1.03865 -0.0583,0 -0.28008,0 -0.49015,-0.12838 0.24508,-0.0583 0.46681,-0.26841 0.46681,-0.53682 0,-0.26841 -0.22173,-0.35011 -0.37344,-0.35011 -0.29176,0 -0.53683,0.25674 -0.53683,0.57184 0,0.45514 0.49015,0.65353 0.93361,0.65353 0.65353,0 1.00364,-0.68854 1.03865,-0.74689 0.1167,0.36177 0.47848,0.74689 1.07366,0.74689 1.0153,0 1.58715,-1.27205 1.58715,-1.52879 0,-0.0934 -0.0934,-0.0934 -0.12838,-0.0934 -0.0817,0 -0.10503,0.035 -0.12837,0.10503 -0.32676,1.06198 -0.99197,1.30706 -1.31873,1.30706 -0.38512,0 -0.53683,-0.32676 -0.53683,-0.65353 0,-0.22174 0.0583,-0.44347 0.16338,-0.87527 z m 0,0"
       style="fill:#000000;fill-opacity:1;fill-rule:nonzero;stroke:none;stroke-width:0.995853"
       aria-label="x" />
    <path
       id="path44"
       d="m 141.70233,-2.8298144 c 0.0467,-0.1400422 0.0467,-0.1517125 0.0467,-0.2217336 0,-0.186723 -0.14004,-0.2684142 -0.29176,-0.2684142 -0.10502,0 -0.25674,0.058351 -0.3501,0.1983931 -0.0233,0.058351 -0.0934,0.3617758 -0.14004,0.5368285 -0.07,0.2567441 -0.14005,0.5251585 -0.19839,0.7935727 l -0.44347,1.78553849 c -0.035,0.15171241 -0.46681,0.85192358 -1.12034,0.85192358 -0.50182,0 -0.61852,-0.44346707 -0.61852,-0.80524284 0,-0.45513723 0.17506,-1.07365713 0.51349,-1.94892113 0.15171,-0.4084564 0.19839,-0.5134882 0.19839,-0.7118813 0,-0.443467 -0.32676,-0.816913 -0.81691,-0.816913 -0.94528,0 -1.30706,1.4471031 -1.30706,1.5287943 0,0.1050318 0.0934,0.1050318 0.1167,0.1050318 0.0934,0 0.10504,-0.02334 0.15172,-0.186723 0.26841,-0.9336149 0.66519,-1.2253696 1.00363,-1.2253696 0.0817,0 0.25674,0 0.25674,0.3150951 0,0.2450738 -0.10503,0.5134882 -0.17505,0.7002112 -0.39678,1.0503167 -0.57183,1.6104856 -0.57183,2.07729307 0,0.88693409 0.61851,1.17868873 1.21369,1.17868873 0.38512,0 0.72355,-0.16338259 0.99197,-0.44346706 -0.12838,0.51348816 -0.24508,1.00363606 -0.64187,1.52879446 -0.25674,0.3384353 -0.63019,0.63019 -1.08532,0.63019 -0.14004,0 -0.59518,-0.035011 -0.75856,-0.4201267 0.16338,0 0.29175,0 0.43179,-0.1167019 0.0934,-0.093361 0.19839,-0.2217335 0.19839,-0.4084565 0,-0.315095 -0.26841,-0.3501056 -0.37343,-0.3501056 -0.22174,0 -0.54851,0.1633826 -0.54851,0.6418603 0,0.5018179 0.4318,0.8635938 1.05032,0.8635938 1.0153,0 2.04228,-0.8986044 2.32236,-2.01894227 z m 0,0"
       style="fill:#000000;fill-opacity:1;fill-rule:nonzero;stroke:none;stroke-width:0.995853"
       aria-label="y" />
    <g
       id="g74"
       transform="matrix(1.4842668,0,0,1.4842668,-61.738166,-72.090749)"
       style="fill:#4f4e4e;fill-opacity:1">
      <g
         transform="matrix(0.59793595,0,0,0.59793595,157.98347,185.37206)"
         id="g45"
         style="fill:#4f4e4e;fill-opacity:1">
        <path
           d="m 3.3125,-0.75 c 0.046875,0.390625 0.3125,0.8125 0.78125,0.8125 0.21875,0 0.828125,-0.140625 0.828125,-0.953125 v -0.5625 h -0.25 v 0.5625 c 0,0.578125 -0.25,0.640625 -0.359375,0.640625 -0.328125,0 -0.375,-0.453125 -0.375,-0.5 v -1.984375 c 0,-0.421875 0,-0.8125 -0.359375,-1.1875 C 3.1875,-4.3125 2.6875,-4.46875 2.21875,-4.46875 c -0.828125,0 -1.515625,0.46875 -1.515625,1.125 0,0.296875 0.203125,0.46875 0.46875,0.46875 0.28125,0 0.453125,-0.203125 0.453125,-0.453125 0,-0.125 -0.046875,-0.453125 -0.515625,-0.453125 C 1.390625,-4.140625 1.875,-4.25 2.1875,-4.25 c 0.5,0 1.0625,0.390625 1.0625,1.28125 v 0.359375 c -0.515625,0.03125 -1.203125,0.0625 -1.828125,0.359375 -0.75,0.34375 -1,0.859375 -1,1.296875 0,0.8125 0.96875,1.0625 1.59375,1.0625 0.65625,0 1.109375,-0.40625 1.296875,-0.859375 z M 3.25,-2.390625 v 1 c 0,0.9375 -0.71875,1.28125 -1.171875,1.28125 -0.484375,0 -0.890625,-0.34375 -0.890625,-0.84375 0,-0.546875 0.421875,-1.375 2.0625,-1.4375 z m 0,0"
           id="id-6697b427-0a73-4c4b-b5f4-3f994a3c9398"
           style="fill:#4f4e4e;fill-opacity:1" />
      </g>
      <g
         transform="matrix(0.59793595,0,0,0.59793595,160.96179,185.37206)"
         id="g46"
         style="fill:#4f4e4e;fill-opacity:1">
        <path
           d="M 2.859375,-2.34375 C 3.15625,-2.71875 3.53125,-3.203125 3.78125,-3.46875 4.09375,-3.828125 4.5,-3.984375 4.96875,-3.984375 v -0.3125 c -0.265625,0.015625 -0.5625,0.03125 -0.828125,0.03125 -0.296875,0 -0.828125,-0.015625 -0.953125,-0.03125 v 0.3125 c 0.21875,0.015625 0.296875,0.140625 0.296875,0.3125 0,0.15625 -0.109375,0.28125 -0.15625,0.34375 L 2.71875,-2.546875 1.9375,-3.5625 C 1.84375,-3.65625 1.84375,-3.671875 1.84375,-3.734375 c 0,-0.15625 0.15625,-0.25 0.34375,-0.25 v -0.3125 c -0.25,0.015625 -0.90625,0.03125 -1.078125,0.03125 -0.203125,0 -0.671875,-0.015625 -0.9375,-0.03125 v 0.3125 c 0.703125,0 0.703125,0 1.171875,0.609375 l 0.984375,1.28125 -0.9375,1.1875 C 0.921875,-0.328125 0.328125,-0.3125 0.125,-0.3125 V 0 c 0.25,-0.015625 0.5625,-0.03125 0.828125,-0.03125 0.28125,0 0.703125,0.015625 0.9375,0.03125 v -0.3125 c -0.21875,-0.03125 -0.28125,-0.15625 -0.28125,-0.3125 0,-0.21875 0.28125,-0.546875 0.890625,-1.265625 l 0.765625,1 C 3.34375,-0.78125 3.46875,-0.625 3.46875,-0.5625 c 0,0.09375 -0.09375,0.25 -0.359375,0.25 V 0 C 3.40625,-0.015625 3.96875,-0.03125 4.1875,-0.03125 c 0.265625,0 0.65625,0.015625 0.953125,0.03125 v -0.3125 c -0.53125,0 -0.71875,-0.015625 -0.9375,-0.3125 z m 0,0"
           id="id-813e4787-d0a3-4831-b4c2-77f0915f3740"
           style="fill:#4f4e4e;fill-opacity:1" />
      </g>
      <g
         transform="matrix(0.59793595,0,0,0.59793595,164.10634,185.37206)"
         id="g47"
         style="fill:#4f4e4e;fill-opacity:1">
        <path
           d="M 1.765625,-4.40625 0.375,-4.296875 v 0.3125 c 0.640625,0 0.734375,0.0625 0.734375,0.546875 V -0.75 c 0,0.4375 -0.109375,0.4375 -0.78125,0.4375 V 0 C 0.640625,-0.015625 1.1875,-0.03125 1.421875,-0.03125 1.78125,-0.03125 2.125,-0.015625 2.46875,0 v -0.3125 c -0.671875,0 -0.703125,-0.046875 -0.703125,-0.4375 z m 0.03125,-1.734375 c 0,-0.3125 -0.234375,-0.53125 -0.515625,-0.53125 -0.3125,0 -0.53125,0.265625 -0.53125,0.53125 0,0.265625 0.21875,0.53125 0.53125,0.53125 0.28125,0 0.515625,-0.21875 0.515625,-0.53125 z m 0,0"
           id="id-d259e6aa-0251-4cab-bf1a-6c18834004ce"
           style="fill:#4f4e4e;fill-opacity:1" />
      </g>
      <g
         transform="matrix(0.59793595,0,0,0.59793595,165.76082,185.37206)"
         id="g48"
         style="fill:#4f4e4e;fill-opacity:1">
        <path
           d="m 2.078125,-1.9375 c 0.21875,0.046875 1.03125,0.203125 1.03125,0.921875 0,0.5 -0.34375,0.90625 -1.125,0.90625 -0.84375,0 -1.203125,-0.5625 -1.390625,-1.421875 C 0.5625,-1.65625 0.5625,-1.6875 0.453125,-1.6875 c -0.125,0 -0.125,0.0625 -0.125,0.234375 V -0.125 c 0,0.171875 0,0.234375 0.109375,0.234375 0.046875,0 0.0625,-0.015625 0.25,-0.203125 0.015625,-0.015625 0.015625,-0.03125 0.203125,-0.21875 0.4375,0.40625 0.890625,0.421875 1.09375,0.421875 1.140625,0 1.609375,-0.671875 1.609375,-1.390625 0,-0.515625 -0.296875,-0.828125 -0.421875,-0.9375 C 2.84375,-2.546875 2.453125,-2.625 2.03125,-2.703125 1.46875,-2.8125 0.8125,-2.9375 0.8125,-3.515625 c 0,-0.359375 0.25,-0.765625 1.109375,-0.765625 1.09375,0 1.15625,0.90625 1.171875,1.203125 0,0.09375 0.09375,0.09375 0.109375,0.09375 0.140625,0 0.140625,-0.046875 0.140625,-0.234375 v -1.015625 c 0,-0.15625 0,-0.234375 -0.109375,-0.234375 -0.046875,0 -0.078125,0 -0.203125,0.125 -0.03125,0.03125 -0.125,0.125 -0.171875,0.15625 -0.375,-0.28125 -0.78125,-0.28125 -0.9375,-0.28125 -1.21875,0 -1.59375,0.671875 -1.59375,1.234375 0,0.34375 0.15625,0.625 0.421875,0.84375 0.328125,0.25 0.609375,0.3125 1.328125,0.453125 z m 0,0"
           id="id-9e87e8ff-12e8-4cd7-8db7-9c033383d488"
           style="fill:#4f4e4e;fill-opacity:1" />
      </g>
      <g
         transform="matrix(0.59793595,0,0,0.59793595,170.09407,185.37206)"
         id="g49"
         style="fill:#4f4e4e;fill-opacity:1">
        <path
           d="M 4.6875,-2.140625 C 4.6875,-3.40625 3.703125,-4.46875 2.5,-4.46875 c -1.25,0 -2.21875,1.09375 -2.21875,2.328125 0,1.296875 1.03125,2.25 2.203125,2.25 1.203125,0 2.203125,-0.984375 2.203125,-2.25 z m -2.1875,2 c -0.4375,0 -0.875,-0.203125 -1.140625,-0.671875 -0.25,-0.4375 -0.25,-1.046875 -0.25,-1.40625 0,-0.390625 0,-0.921875 0.234375,-1.359375 C 1.609375,-4.03125 2.078125,-4.25 2.484375,-4.25 c 0.4375,0 0.859375,0.21875 1.125,0.65625 0.265625,0.421875 0.265625,1 0.265625,1.375 0,0.359375 0,0.90625 -0.21875,1.34375 C 3.421875,-0.421875 2.984375,-0.140625 2.5,-0.140625 Z m 0,0"
           id="id-4b8f2d44-dcb0-4b32-9db0-774c564d3989"
           style="fill:#4f4e4e;fill-opacity:1" />
      </g>
      <g
         transform="matrix(0.59793595,0,0,0.59793595,173.07238,185.37206)"
         id="g50"
         style="fill:#4f4e4e;fill-opacity:1">
        <path
           d="m 1.75,-4.296875 v -1.15625 c 0,-0.875 0.46875,-1.359375 0.90625,-1.359375 0.03125,0 0.1875,0 0.328125,0.078125 C 2.875,-6.703125 2.6875,-6.5625 2.6875,-6.3125 c 0,0.21875 0.15625,0.421875 0.4375,0.421875 0.28125,0 0.4375,-0.203125 0.4375,-0.4375 0,-0.375 -0.375,-0.703125 -0.90625,-0.703125 -0.6875,0 -1.546875,0.53125 -1.546875,1.59375 v 1.140625 h -0.78125 v 0.3125 h 0.78125 V -0.75 C 1.109375,-0.3125 1,-0.3125 0.34375,-0.3125 V 0 c 0.390625,-0.015625 0.859375,-0.03125 1.125,-0.03125 0.40625,0 0.875,0 1.265625,0.03125 V -0.3125 H 2.53125 c -0.734375,0 -0.75,-0.109375 -0.75,-0.46875 v -3.203125 h 1.125 v -0.3125 z m 0,0"
           id="id-7d42bd5d-7427-4e37-8569-80bcb3a4a36f"
           style="fill:#4f4e4e;fill-opacity:1" />
      </g>
      <g
         transform="matrix(0.59793595,0,0,0.59793595,176.88243,185.37206)"
         id="g51"
         style="fill:#4f4e4e;fill-opacity:1">
        <path
           d="m 2.078125,-1.9375 c 0.21875,0.046875 1.03125,0.203125 1.03125,0.921875 0,0.5 -0.34375,0.90625 -1.125,0.90625 -0.84375,0 -1.203125,-0.5625 -1.390625,-1.421875 C 0.5625,-1.65625 0.5625,-1.6875 0.453125,-1.6875 c -0.125,0 -0.125,0.0625 -0.125,0.234375 V -0.125 c 0,0.171875 0,0.234375 0.109375,0.234375 0.046875,0 0.0625,-0.015625 0.25,-0.203125 0.015625,-0.015625 0.015625,-0.03125 0.203125,-0.21875 0.4375,0.40625 0.890625,0.421875 1.09375,0.421875 1.140625,0 1.609375,-0.671875 1.609375,-1.390625 0,-0.515625 -0.296875,-0.828125 -0.421875,-0.9375 C 2.84375,-2.546875 2.453125,-2.625 2.03125,-2.703125 1.46875,-2.8125 0.8125,-2.9375 0.8125,-3.515625 c 0,-0.359375 0.25,-0.765625 1.109375,-0.765625 1.09375,0 1.15625,0.90625 1.171875,1.203125 0,0.09375 0.09375,0.09375 0.109375,0.09375 0.140625,0 0.140625,-0.046875 0.140625,-0.234375 v -1.015625 c 0,-0.15625 0,-0.234375 -0.109375,-0.234375 -0.046875,0 -0.078125,0 -0.203125,0.125 -0.03125,0.03125 -0.125,0.125 -0.171875,0.15625 -0.375,-0.28125 -0.78125,-0.28125 -0.9375,-0.28125 -1.21875,0 -1.59375,0.671875 -1.59375,1.234375 0,0.34375 0.15625,0.625 0.421875,0.84375 0.328125,0.25 0.609375,0.3125 1.328125,0.453125 z m 0,0"
           id="id-dd290a1d-f0a9-455e-a978-2f56885dce0b"
           style="fill:#4f4e4e;fill-opacity:1" />
      </g>
      <g
         transform="matrix(0.59793595,0,0,0.59793595,179.23232,185.37206)"
         id="g52"
         style="fill:#4f4e4e;fill-opacity:1">
        <path
           d="m 4.140625,-3.34375 c 0.25,-0.640625 0.765625,-0.640625 0.921875,-0.640625 v -0.3125 c -0.234375,0.015625 -0.515625,0.03125 -0.75,0.03125 -0.171875,0 -0.640625,-0.015625 -0.859375,-0.03125 v 0.3125 c 0.3125,0 0.46875,0.171875 0.46875,0.421875 0,0.109375 -0.015625,0.125 -0.0625,0.25 L 2.84375,-0.875 1.75,-3.546875 C 1.703125,-3.65625 1.6875,-3.6875 1.6875,-3.734375 c 0,-0.25 0.359375,-0.25 0.5625,-0.25 v -0.3125 c -0.265625,0.015625 -0.921875,0.03125 -1.09375,0.03125 -0.265625,0 -0.671875,-0.015625 -0.96875,-0.03125 v 0.3125 c 0.484375,0 0.671875,0 0.8125,0.34375 L 2.5,0 C 2.4375,0.125 2.296875,0.453125 2.25,0.59375 2.03125,1.140625 1.75,1.828125 1.109375,1.828125 c -0.046875,0 -0.28125,0 -0.46875,-0.1875 0.3125,-0.03125 0.390625,-0.25 0.390625,-0.421875 0,-0.25 -0.1875,-0.40625 -0.421875,-0.40625 -0.203125,0 -0.421875,0.125 -0.421875,0.421875 0,0.453125 0.421875,0.8125 0.921875,0.8125 0.625,0 1.03125,-0.578125 1.265625,-1.140625 z m 0,0"
           id="id-b602648e-2e7a-446b-8cbe-f949c91ef333"
           style="fill:#4f4e4e;fill-opacity:1" />
      </g>
      <g
         transform="matrix(0.59793595,0,0,0.59793595,182.37627,185.37206)"
         id="g53"
         style="fill:#4f4e4e;fill-opacity:1">
        <path
           d="M 1.09375,-3.421875 V -0.75 c 0,0.4375 -0.109375,0.4375 -0.78125,0.4375 V 0 c 0.359375,-0.015625 0.859375,-0.03125 1.140625,-0.03125 0.25,0 0.765625,0.015625 1.109375,0.03125 v -0.3125 c -0.671875,0 -0.78125,0 -0.78125,-0.4375 V -2.59375 C 1.78125,-3.625 2.5,-4.1875 3.125,-4.1875 c 0.640625,0 0.75,0.53125 0.75,1.109375 V -0.75 c 0,0.4375 -0.109375,0.4375 -0.78125,0.4375 V 0 c 0.34375,-0.015625 0.859375,-0.03125 1.125,-0.03125 0.25,0 0.78125,0.015625 1.109375,0.03125 v -0.3125 c -0.65625,0 -0.765625,0 -0.765625,-0.4375 v -1.84375 c 0,-1.03125 0.703125,-1.59375 1.34375,-1.59375 0.625,0 0.734375,0.53125 0.734375,1.109375 V -0.75 c 0,0.4375 -0.109375,0.4375 -0.78125,0.4375 V 0 c 0.34375,-0.015625 0.859375,-0.03125 1.125,-0.03125 0.265625,0 0.78125,0.015625 1.125,0.03125 v -0.3125 c -0.515625,0 -0.765625,0 -0.78125,-0.296875 v -1.90625 c 0,-0.859375 0,-1.15625 -0.3125,-1.515625 -0.140625,-0.171875 -0.46875,-0.375 -1.046875,-0.375 -0.828125,0 -1.28125,0.59375 -1.4375,0.984375 C 4.390625,-4.296875 3.65625,-4.40625 3.203125,-4.40625 2.46875,-4.40625 2,-3.984375 1.71875,-3.359375 V -4.40625 L 0.3125,-4.296875 v 0.3125 c 0.703125,0 0.78125,0.0625 0.78125,0.5625 z m 0,0"
           id="id-9257f13f-917c-4155-b559-9472574a41f4"
           style="fill:#4f4e4e;fill-opacity:1" />
      </g>
      <g
         transform="matrix(0.59793595,0,0,0.59793595,187.34033,185.37206)"
         id="g54"
         style="fill:#4f4e4e;fill-opacity:1">
        <path
           d="M 1.09375,-3.421875 V -0.75 c 0,0.4375 -0.109375,0.4375 -0.78125,0.4375 V 0 c 0.359375,-0.015625 0.859375,-0.03125 1.140625,-0.03125 0.25,0 0.765625,0.015625 1.109375,0.03125 v -0.3125 c -0.671875,0 -0.78125,0 -0.78125,-0.4375 V -2.59375 C 1.78125,-3.625 2.5,-4.1875 3.125,-4.1875 c 0.640625,0 0.75,0.53125 0.75,1.109375 V -0.75 c 0,0.4375 -0.109375,0.4375 -0.78125,0.4375 V 0 c 0.34375,-0.015625 0.859375,-0.03125 1.125,-0.03125 0.25,0 0.78125,0.015625 1.109375,0.03125 v -0.3125 c -0.65625,0 -0.765625,0 -0.765625,-0.4375 v -1.84375 c 0,-1.03125 0.703125,-1.59375 1.34375,-1.59375 0.625,0 0.734375,0.53125 0.734375,1.109375 V -0.75 c 0,0.4375 -0.109375,0.4375 -0.78125,0.4375 V 0 c 0.34375,-0.015625 0.859375,-0.03125 1.125,-0.03125 0.265625,0 0.78125,0.015625 1.125,0.03125 v -0.3125 c -0.515625,0 -0.765625,0 -0.78125,-0.296875 v -1.90625 c 0,-0.859375 0,-1.15625 -0.3125,-1.515625 -0.140625,-0.171875 -0.46875,-0.375 -1.046875,-0.375 -0.828125,0 -1.28125,0.59375 -1.4375,0.984375 C 4.390625,-4.296875 3.65625,-4.40625 3.203125,-4.40625 2.46875,-4.40625 2,-3.984375 1.71875,-3.359375 V -4.40625 L 0.3125,-4.296875 v 0.3125 c 0.703125,0 0.78125,0.0625 0.78125,0.5625 z m 0,0"
           id="id-79b828f8-b788-4b52-9a6f-d6e786a1c2cf"
           style="fill:#4f4e4e;fill-opacity:1" />
      </g>
      <g
         transform="matrix(0.59793595,0,0,0.59793595,192.3044,185.37206)"
         id="g55"
         style="fill:#4f4e4e;fill-opacity:1">
        <path
           d="M 1.109375,-2.515625 C 1.171875,-4 2.015625,-4.25 2.359375,-4.25 c 1.015625,0 1.125,1.34375 1.125,1.734375 z m 0,0.21875 h 2.78125 c 0.21875,0 0.25,0 0.25,-0.21875 0,-0.984375 -0.546875,-1.953125 -1.78125,-1.953125 -1.15625,0 -2.078125,1.03125 -2.078125,2.28125 0,1.328125 1.046875,2.296875 2.1875,2.296875 C 3.6875,0.109375 4.140625,-1 4.140625,-1.1875 4.140625,-1.28125 4.0625,-1.3125 4,-1.3125 c -0.078125,0 -0.109375,0.0625 -0.125,0.140625 -0.34375,1.03125 -1.25,1.03125 -1.34375,1.03125 -0.5,0 -0.890625,-0.296875 -1.125,-0.671875 -0.296875,-0.46875 -0.296875,-1.125 -0.296875,-1.484375 z m 0,0"
           id="id-e7baa4f4-f7fe-4bbd-a71c-02f8f81fbb3c"
           style="fill:#4f4e4e;fill-opacity:1" />
      </g>
      <g
         transform="matrix(0.59793595,0,0,0.59793595,194.95146,185.37206)"
         id="g56"
         style="fill:#4f4e4e;fill-opacity:1">
        <path
           d="m 1.71875,-3.984375 h 1.4375 v -0.3125 H 1.71875 V -6.125 h -0.25 c 0,0.8125 -0.296875,1.875 -1.28125,1.921875 v 0.21875 h 0.84375 v 2.75 c 0,1.21875 0.9375,1.34375 1.296875,1.34375 0.703125,0 0.984375,-0.703125 0.984375,-1.34375 v -0.5625 h -0.25 V -1.25 c 0,0.734375 -0.296875,1.109375 -0.671875,1.109375 -0.671875,0 -0.671875,-0.90625 -0.671875,-1.078125 z m 0,0"
           id="id-37ff4c8b-0a69-46d2-8dc0-469481b17627"
           style="fill:#4f4e4e;fill-opacity:1" />
      </g>
      <g
         transform="matrix(0.59793595,0,0,0.59793595,197.26786,185.37206)"
         id="g57"
         style="fill:#4f4e4e;fill-opacity:1">
        <path
           d="M 1.671875,-3.3125 V -4.40625 L 0.28125,-4.296875 v 0.3125 c 0.703125,0 0.78125,0.0625 0.78125,0.5625 V -0.75 c 0,0.4375 -0.109375,0.4375 -0.78125,0.4375 V 0 c 0.390625,-0.015625 0.859375,-0.03125 1.140625,-0.03125 0.390625,0 0.859375,0 1.265625,0.03125 V -0.3125 H 2.46875 c -0.734375,0 -0.75,-0.109375 -0.75,-0.46875 V -2.3125 c 0,-0.984375 0.421875,-1.875 1.171875,-1.875 0.0625,0 0.09375,0 0.109375,0.015625 -0.03125,0 -0.234375,0.125 -0.234375,0.390625 0,0.265625 0.21875,0.421875 0.4375,0.421875 0.171875,0 0.421875,-0.125 0.421875,-0.4375 0,-0.3125 -0.3125,-0.609375 -0.734375,-0.609375 -0.734375,0 -1.09375,0.671875 -1.21875,1.09375 z m 0,0"
           id="id-77f1368a-5bb4-4406-a0d6-871666d8c466"
           style="fill:#4f4e4e;fill-opacity:1" />
      </g>
      <g
         transform="matrix(0.59793595,0,0,0.59793595,199.60161,185.37206)"
         id="g58"
         style="fill:#4f4e4e;fill-opacity:1">
        <path
           d="m 4.140625,-3.34375 c 0.25,-0.640625 0.765625,-0.640625 0.921875,-0.640625 v -0.3125 c -0.234375,0.015625 -0.515625,0.03125 -0.75,0.03125 -0.171875,0 -0.640625,-0.015625 -0.859375,-0.03125 v 0.3125 c 0.3125,0 0.46875,0.171875 0.46875,0.421875 0,0.109375 -0.015625,0.125 -0.0625,0.25 L 2.84375,-0.875 1.75,-3.546875 C 1.703125,-3.65625 1.6875,-3.6875 1.6875,-3.734375 c 0,-0.25 0.359375,-0.25 0.5625,-0.25 v -0.3125 c -0.265625,0.015625 -0.921875,0.03125 -1.09375,0.03125 -0.265625,0 -0.671875,-0.015625 -0.96875,-0.03125 v 0.3125 c 0.484375,0 0.671875,0 0.8125,0.34375 L 2.5,0 C 2.4375,0.125 2.296875,0.453125 2.25,0.59375 2.03125,1.140625 1.75,1.828125 1.109375,1.828125 c -0.046875,0 -0.28125,0 -0.46875,-0.1875 0.3125,-0.03125 0.390625,-0.25 0.390625,-0.421875 0,-0.25 -0.1875,-0.40625 -0.421875,-0.40625 -0.203125,0 -0.421875,0.125 -0.421875,0.421875 0,0.453125 0.421875,0.8125 0.921875,0.8125 0.625,0 1.03125,-0.578125 1.265625,-1.140625 z m 0,0"
           id="id-6027fa3b-6929-4684-b974-e9eb97dd6024"
           style="fill:#4f4e4e;fill-opacity:1" />
      </g>
    </g>
    <g
       id="g75"
       transform="matrix(1.4730684,0,0,1.4730684,-134.10506,-110.65706)"
       style="fill:#4f4e4e;fill-opacity:1">
      <g
         transform="matrix(0.59793595,0,0,0.59793595,204.72951,185.37206)"
         id="g59"
         style="fill:#4f4e4e;fill-opacity:1">
        <path
           d="M 4.140625,-3.3125 C 4.234375,-3.546875 4.40625,-3.984375 5.0625,-3.984375 v -0.3125 c -0.234375,0.015625 -0.515625,0.03125 -0.75,0.03125 -0.234375,0 -0.6875,-0.015625 -0.859375,-0.03125 v 0.3125 c 0.359375,0 0.46875,0.234375 0.46875,0.421875 0,0.09375 -0.015625,0.140625 -0.046875,0.25 L 2.84375,-0.78125 1.734375,-3.5625 c -0.0625,-0.125 -0.0625,-0.140625 -0.0625,-0.171875 0,-0.25 0.390625,-0.25 0.578125,-0.25 v -0.3125 c -0.3125,0.015625 -0.859375,0.03125 -1.09375,0.03125 -0.265625,0 -0.671875,-0.015625 -0.96875,-0.03125 v 0.3125 c 0.625,0 0.671875,0.0625 0.796875,0.359375 l 1.4375,3.546875 C 2.484375,0.0625 2.5,0.109375 2.625,0.109375 c 0.140625,0 0.171875,-0.09375 0.21875,-0.1875 z m 0,0"
           id="id-ee50224e-6ed6-4f87-8bbc-126a87a5838f"
           style="fill:#4f4e4e;fill-opacity:1" />
      </g>
      <g
         transform="matrix(0.59793595,0,0,0.59793595,207.70663,185.37206)"
         id="g60"
         style="fill:#4f4e4e;fill-opacity:1">
        <path
           d="M 1.109375,-2.515625 C 1.171875,-4 2.015625,-4.25 2.359375,-4.25 c 1.015625,0 1.125,1.34375 1.125,1.734375 z m 0,0.21875 h 2.78125 c 0.21875,0 0.25,0 0.25,-0.21875 0,-0.984375 -0.546875,-1.953125 -1.78125,-1.953125 -1.15625,0 -2.078125,1.03125 -2.078125,2.28125 0,1.328125 1.046875,2.296875 2.1875,2.296875 C 3.6875,0.109375 4.140625,-1 4.140625,-1.1875 4.140625,-1.28125 4.0625,-1.3125 4,-1.3125 c -0.078125,0 -0.109375,0.0625 -0.125,0.140625 -0.34375,1.03125 -1.25,1.03125 -1.34375,1.03125 -0.5,0 -0.890625,-0.296875 -1.125,-0.671875 -0.296875,-0.46875 -0.296875,-1.125 -0.296875,-1.484375 z m 0,0"
           id="id-d4b8d271-0fcc-4576-8f03-79547bae590e"
           style="fill:#4f4e4e;fill-opacity:1" />
      </g>
      <g
         transform="matrix(0.59793595,0,0,0.59793595,210.35369,185.37206)"
         id="g61"
         style="fill:#4f4e4e;fill-opacity:1">
        <path
           d="M 1.671875,-3.3125 V -4.40625 L 0.28125,-4.296875 v 0.3125 c 0.703125,0 0.78125,0.0625 0.78125,0.5625 V -0.75 c 0,0.4375 -0.109375,0.4375 -0.78125,0.4375 V 0 c 0.390625,-0.015625 0.859375,-0.03125 1.140625,-0.03125 0.390625,0 0.859375,0 1.265625,0.03125 V -0.3125 H 2.46875 c -0.734375,0 -0.75,-0.109375 -0.75,-0.46875 V -2.3125 c 0,-0.984375 0.421875,-1.875 1.171875,-1.875 0.0625,0 0.09375,0 0.109375,0.015625 -0.03125,0 -0.234375,0.125 -0.234375,0.390625 0,0.265625 0.21875,0.421875 0.4375,0.421875 0.171875,0 0.421875,-0.125 0.421875,-0.4375 0,-0.3125 -0.3125,-0.609375 -0.734375,-0.609375 -0.734375,0 -1.09375,0.671875 -1.21875,1.09375 z m 0,0"
           id="id-3260f961-311f-4c3f-908a-050b887fec0c"
           style="fill:#4f4e4e;fill-opacity:1" />
      </g>
      <g
         transform="matrix(0.59793595,0,0,0.59793595,212.68744,185.37206)"
         id="g62"
         style="fill:#4f4e4e;fill-opacity:1">
        <path
           d="m 1.71875,-3.984375 h 1.4375 v -0.3125 H 1.71875 V -6.125 h -0.25 c 0,0.8125 -0.296875,1.875 -1.28125,1.921875 v 0.21875 h 0.84375 v 2.75 c 0,1.21875 0.9375,1.34375 1.296875,1.34375 0.703125,0 0.984375,-0.703125 0.984375,-1.34375 v -0.5625 h -0.25 V -1.25 c 0,0.734375 -0.296875,1.109375 -0.671875,1.109375 -0.671875,0 -0.671875,-0.90625 -0.671875,-1.078125 z m 0,0"
           id="id-747c6732-802f-4da8-a21a-624a28d7baa3"
           style="fill:#4f4e4e;fill-opacity:1" />
      </g>
      <g
         transform="matrix(0.59793595,0,0,0.59793595,215.00384,185.37206)"
         id="g63"
         style="fill:#4f4e4e;fill-opacity:1">
        <path
           d="M 1.109375,-2.515625 C 1.171875,-4 2.015625,-4.25 2.359375,-4.25 c 1.015625,0 1.125,1.34375 1.125,1.734375 z m 0,0.21875 h 2.78125 c 0.21875,0 0.25,0 0.25,-0.21875 0,-0.984375 -0.546875,-1.953125 -1.78125,-1.953125 -1.15625,0 -2.078125,1.03125 -2.078125,2.28125 0,1.328125 1.046875,2.296875 2.1875,2.296875 C 3.6875,0.109375 4.140625,-1 4.140625,-1.1875 4.140625,-1.28125 4.0625,-1.3125 4,-1.3125 c -0.078125,0 -0.109375,0.0625 -0.125,0.140625 -0.34375,1.03125 -1.25,1.03125 -1.34375,1.03125 -0.5,0 -0.890625,-0.296875 -1.125,-0.671875 -0.296875,-0.46875 -0.296875,-1.125 -0.296875,-1.484375 z m 0,0"
           id="id-fd5906c8-cc9e-4614-b778-87807aba21d9"
           style="fill:#4f4e4e;fill-opacity:1" />
      </g>
      <g
         transform="matrix(0.59793595,0,0,0.59793595,217.6509,185.37206)"
         id="g64"
         style="fill:#4f4e4e;fill-opacity:1">
        <path
           d="M 2.859375,-2.34375 C 3.15625,-2.71875 3.53125,-3.203125 3.78125,-3.46875 4.09375,-3.828125 4.5,-3.984375 4.96875,-3.984375 v -0.3125 c -0.265625,0.015625 -0.5625,0.03125 -0.828125,0.03125 -0.296875,0 -0.828125,-0.015625 -0.953125,-0.03125 v 0.3125 c 0.21875,0.015625 0.296875,0.140625 0.296875,0.3125 0,0.15625 -0.109375,0.28125 -0.15625,0.34375 L 2.71875,-2.546875 1.9375,-3.5625 C 1.84375,-3.65625 1.84375,-3.671875 1.84375,-3.734375 c 0,-0.15625 0.15625,-0.25 0.34375,-0.25 v -0.3125 c -0.25,0.015625 -0.90625,0.03125 -1.078125,0.03125 -0.203125,0 -0.671875,-0.015625 -0.9375,-0.03125 v 0.3125 c 0.703125,0 0.703125,0 1.171875,0.609375 l 0.984375,1.28125 -0.9375,1.1875 C 0.921875,-0.328125 0.328125,-0.3125 0.125,-0.3125 V 0 c 0.25,-0.015625 0.5625,-0.03125 0.828125,-0.03125 0.28125,0 0.703125,0.015625 0.9375,0.03125 v -0.3125 c -0.21875,-0.03125 -0.28125,-0.15625 -0.28125,-0.3125 0,-0.21875 0.28125,-0.546875 0.890625,-1.265625 l 0.765625,1 C 3.34375,-0.78125 3.46875,-0.625 3.46875,-0.5625 c 0,0.09375 -0.09375,0.25 -0.359375,0.25 V 0 C 3.40625,-0.015625 3.96875,-0.03125 4.1875,-0.03125 c 0.265625,0 0.65625,0.015625 0.953125,0.03125 v -0.3125 c -0.53125,0 -0.71875,-0.015625 -0.9375,-0.3125 z m 0,0"
           id="id-b436948f-dfd8-48a7-bbbd-eb126feb1ba6"
           style="fill:#4f4e4e;fill-opacity:1" />
      </g>
    </g>
    <g
       id="g76"
       transform="matrix(1.7751951,0,0,1.7751951,-193.39775,-306.63385)"
       style="fill:#e54f4f;fill-opacity:1;stroke:none;stroke-opacity:1">
      <g
         fill="#000000"
         fill-opacity="1"
         id="id-d03eb572-1e3b-4560-87a8-7d5d7d27472e"
         transform="matrix(0.59793595,0,0,0.59793595,69.06322,104.79122)"
         style="fill:#e54f4f;fill-opacity:1;stroke:none;stroke-opacity:1">
        <g
           transform="translate(257.084,134.765)"
           id="g65"
           style="fill:#e54f4f;fill-opacity:1;stroke:none;stroke-opacity:1">
          <path
             d="m 4.84375,-3.796875 c 0.046875,-0.140625 0.046875,-0.15625 0.046875,-0.234375 0,-0.171875 -0.140625,-0.265625 -0.296875,-0.265625 -0.09375,0 -0.25,0.0625 -0.34375,0.203125 -0.015625,0.0625 -0.109375,0.359375 -0.140625,0.546875 -0.078125,0.25 -0.140625,0.53125 -0.203125,0.796875 l -0.453125,1.796875 c -0.03125,0.140625 -0.46875,0.84375 -1.125,0.84375 -0.5,0 -0.609375,-0.4375 -0.609375,-0.8125 C 1.71875,-1.375 1.890625,-2 2.21875,-2.875 2.375,-3.28125 2.421875,-3.390625 2.421875,-3.59375 c 0,-0.4375 -0.3125,-0.8125 -0.8125,-0.8125 -0.953125,0 -1.3125,1.453125 -1.3125,1.53125 0,0.109375 0.09375,0.109375 0.109375,0.109375 0.109375,0 0.109375,-0.03125 0.15625,-0.1875 0.28125,-0.9375 0.671875,-1.234375 1.015625,-1.234375 0.078125,0 0.25,0 0.25,0.3125 0,0.25 -0.109375,0.515625 -0.171875,0.703125 -0.40625,1.0625 -0.578125,1.625 -0.578125,2.09375 0,0.890625 0.625,1.1875 1.21875,1.1875 0.390625,0 0.71875,-0.171875 1,-0.453125 -0.125,0.515625 -0.25,1.015625 -0.640625,1.546875 -0.265625,0.328125 -0.640625,0.625 -1.09375,0.625 -0.140625,0 -0.59375,-0.03125 -0.765625,-0.421875 0.15625,0 0.296875,0 0.421875,-0.125 C 1.328125,1.203125 1.421875,1.0625 1.421875,0.875 1.421875,0.5625 1.15625,0.53125 1.0625,0.53125 0.828125,0.53125 0.5,0.6875 0.5,1.171875 c 0,0.5 0.4375,0.875 1.0625,0.875 1.015625,0 2.046875,-0.90625 2.328125,-2.03125 z m 0,0"
             id="id-08e4da95-5dff-4c56-985f-9329534cd3df"
             style="fill:#e54f4f;fill-opacity:1;stroke:none;stroke-opacity:1" />
        </g>
      </g>
      <g
         fill="#000000"
         fill-opacity="1"
         id="id-6f0a9c56-8b76-4e86-a693-2f561e5a694b"
         transform="matrix(0.59793595,0,0,0.59793595,69.06322,104.79122)"
         style="fill:#e54f4f;fill-opacity:1;stroke:none;stroke-opacity:1">
        <g
           transform="translate(265.093,134.765)"
           id="g66"
           style="fill:#e54f4f;fill-opacity:1;stroke:none;stroke-opacity:1">
          <path
             d="m 6.84375,-3.265625 c 0.15625,0 0.34375,0 0.34375,-0.1875 C 7.1875,-3.65625 7,-3.65625 6.859375,-3.65625 h -5.96875 c -0.140625,0 -0.328125,0 -0.328125,0.203125 0,0.1875 0.1875,0.1875 0.328125,0.1875 z m 0.015625,1.9375 c 0.140625,0 0.328125,0 0.328125,-0.203125 0,-0.1875 -0.1875,-0.1875 -0.34375,-0.1875 H 0.890625 c -0.140625,0 -0.328125,0 -0.328125,0.1875 0,0.203125 0.1875,0.203125 0.328125,0.203125 z m 0,0"
             id="id-1302cec5-50bc-4694-8d84-ea1bb431cbf5"
             style="fill:#e54f4f;fill-opacity:1;stroke:none;stroke-opacity:1" />
        </g>
      </g>
      <g
         fill="#000000"
         fill-opacity="1"
         id="id-487e21ae-3838-409e-a14d-a0d1e5c0ea5f"
         transform="matrix(0.59793595,0,0,0.59793595,69.06322,104.79122)"
         style="fill:#e54f4f;fill-opacity:1;stroke:none;stroke-opacity:1">
        <g
           transform="translate(275.609,134.765)"
           id="g67"
           style="fill:#e54f4f;fill-opacity:1;stroke:none;stroke-opacity:1">
          <path
             d="M 3.328125,-3.015625 C 3.390625,-3.265625 3.625,-4.1875 4.3125,-4.1875 c 0.046875,0 0.296875,0 0.5,0.125 C 4.53125,-4 4.34375,-3.765625 4.34375,-3.515625 c 0,0.15625 0.109375,0.34375 0.375,0.34375 0.21875,0 0.53125,-0.171875 0.53125,-0.578125 0,-0.515625 -0.578125,-0.65625 -0.921875,-0.65625 -0.578125,0 -0.921875,0.53125 -1.046875,0.75 -0.25,-0.65625 -0.78125,-0.75 -1.078125,-0.75 -1.03125,0 -1.609375,1.28125 -1.609375,1.53125 0,0.109375 0.109375,0.109375 0.125,0.109375 0.078125,0 0.109375,-0.03125 0.125,-0.109375 0.34375,-1.0625 1,-1.3125 1.34375,-1.3125 0.1875,0 0.53125,0.09375 0.53125,0.671875 0,0.3125 -0.171875,0.96875 -0.53125,2.375 -0.15625,0.609375 -0.515625,1.03125 -0.953125,1.03125 -0.0625,0 -0.28125,0 -0.5,-0.125 0.25,-0.0625 0.46875,-0.265625 0.46875,-0.546875 0,-0.265625 -0.21875,-0.34375 -0.359375,-0.34375 -0.3125,0 -0.546875,0.25 -0.546875,0.578125 0,0.453125 0.484375,0.65625 0.921875,0.65625 0.671875,0 1.03125,-0.703125 1.046875,-0.75 0.125,0.359375 0.484375,0.75 1.078125,0.75 1.03125,0 1.59375,-1.28125 1.59375,-1.53125 0,-0.109375 -0.078125,-0.109375 -0.109375,-0.109375 -0.09375,0 -0.109375,0.046875 -0.140625,0.109375 -0.328125,1.078125 -1,1.3125 -1.3125,1.3125 -0.390625,0 -0.546875,-0.3125 -0.546875,-0.65625 0,-0.21875 0.046875,-0.4375 0.15625,-0.875 z m 0,0"
             id="id-8c75c2d5-4d8b-42f4-8541-127ab3e15798"
             style="fill:#e54f4f;fill-opacity:1;stroke:none;stroke-opacity:1" />
        </g>
      </g>
      <g
         fill="#000000"
         fill-opacity="1"
         id="id-527c19b4-4036-4abd-be4e-f20987b25f4e"
         transform="matrix(0.59793595,0,0,0.59793595,69.06322,104.79122)"
         style="fill:#e54f4f;fill-opacity:1;stroke:none;stroke-opacity:1">
        <g
           transform="translate(281.303,131.149)"
           id="g68"
           style="fill:#e54f4f;fill-opacity:1;stroke:none;stroke-opacity:1">
          <path
             d="M 3.515625,-1.265625 H 3.28125 c -0.015625,0.15625 -0.09375,0.5625 -0.1875,0.625 C 3.046875,-0.59375 2.515625,-0.59375 2.40625,-0.59375 H 1.125 c 0.734375,-0.640625 0.984375,-0.84375 1.390625,-1.171875 0.515625,-0.40625 1,-0.84375 1,-1.5 0,-0.84375 -0.734375,-1.359375 -1.625,-1.359375 -0.859375,0 -1.453125,0.609375 -1.453125,1.25 0,0.34375 0.296875,0.390625 0.375,0.390625 0.15625,0 0.359375,-0.125 0.359375,-0.375 0,-0.125 -0.046875,-0.375 -0.40625,-0.375 C 0.984375,-4.21875 1.453125,-4.375 1.78125,-4.375 c 0.703125,0 1.0625,0.546875 1.0625,1.109375 0,0.609375 -0.4375,1.078125 -0.65625,1.328125 L 0.515625,-0.265625 C 0.4375,-0.203125 0.4375,-0.1875 0.4375,0 h 2.875 z m 0,0"
             id="id-a2fc4d8e-4857-466a-890c-f09681bd79c7"
             style="fill:#e54f4f;fill-opacity:1;stroke:none;stroke-opacity:1" />
        </g>
      </g>
      <g
         fill="#000000"
         fill-opacity="1"
         id="id-1bfd06e5-d4a6-4f71-8b0d-917dedf7d357"
         transform="matrix(0.59793595,0,0,0.59793595,69.06322,104.79122)"
         style="fill:#e54f4f;fill-opacity:1;stroke:none;stroke-opacity:1">
        <g
           transform="translate(287.986,134.765)"
           id="g69"
           style="fill:#e54f4f;fill-opacity:1;stroke:none;stroke-opacity:1">
          <path
             d="m 6.5625,-2.296875 c 0.171875,0 0.359375,0 0.359375,-0.203125 0,-0.1875 -0.1875,-0.1875 -0.359375,-0.1875 H 1.171875 c -0.171875,0 -0.34375,0 -0.34375,0.1875 0,0.203125 0.171875,0.203125 0.34375,0.203125 z m 0,0"
             id="id-a3a33dca-cdb4-47ca-9257-878c0fea2625"
             style="fill:#e54f4f;fill-opacity:1;stroke:none;stroke-opacity:1" />
        </g>
      </g>
      <g
         fill="#000000"
         fill-opacity="1"
         id="id-c2446028-8d81-4765-a942-26cb3c5aa2c0"
         transform="matrix(0.59793595,0,0,0.59793595,69.06322,104.79122)"
         style="fill:#e54f4f;fill-opacity:1;stroke:none;stroke-opacity:1">
        <g
           transform="translate(297.949,134.765)"
           id="g70"
           style="fill:#e54f4f;fill-opacity:1;stroke:none;stroke-opacity:1">
          <path
             d="m 1.265625,-0.765625 1.0625,-1.03125 c 1.546875,-1.375 2.140625,-1.90625 2.140625,-2.90625 0,-1.140625 -0.890625,-1.9375 -2.109375,-1.9375 -1.125,0 -1.859375,0.921875 -1.859375,1.8125 0,0.546875 0.5,0.546875 0.53125,0.546875 0.171875,0 0.515625,-0.109375 0.515625,-0.53125 0,-0.25 -0.1875,-0.515625 -0.53125,-0.515625 -0.078125,0 -0.09375,0 -0.125,0.015625 0.21875,-0.65625 0.765625,-1.015625 1.34375,-1.015625 0.90625,0 1.328125,0.8125 1.328125,1.625 C 3.5625,-3.90625 3.078125,-3.125 2.515625,-2.5 l -1.90625,2.125 C 0.5,-0.265625 0.5,-0.234375 0.5,0 H 4.203125 L 4.46875,-1.734375 H 4.234375 C 4.171875,-1.4375 4.109375,-1 4,-0.84375 3.9375,-0.765625 3.28125,-0.765625 3.0625,-0.765625 Z m 0,0"
             id="id-1534163e-71bb-429c-b51d-2a99e0d654a5"
             style="fill:#e54f4f;fill-opacity:1;stroke:none;stroke-opacity:1" />
        </g>
      </g>
      <g
         fill="#000000"
         fill-opacity="1"
         id="id-ff73980e-455b-4abd-a098-1af8b72859cd"
         transform="matrix(0.59793595,0,0,0.59793595,69.06322,104.79122)"
         style="fill:#e54f4f;fill-opacity:1;stroke:none;stroke-opacity:1">
        <g
           transform="translate(302.93,134.765)"
           id="g71"
           style="fill:#e54f4f;fill-opacity:1;stroke:none;stroke-opacity:1">
          <path
             d="M 3.328125,-3.015625 C 3.390625,-3.265625 3.625,-4.1875 4.3125,-4.1875 c 0.046875,0 0.296875,0 0.5,0.125 C 4.53125,-4 4.34375,-3.765625 4.34375,-3.515625 c 0,0.15625 0.109375,0.34375 0.375,0.34375 0.21875,0 0.53125,-0.171875 0.53125,-0.578125 0,-0.515625 -0.578125,-0.65625 -0.921875,-0.65625 -0.578125,0 -0.921875,0.53125 -1.046875,0.75 -0.25,-0.65625 -0.78125,-0.75 -1.078125,-0.75 -1.03125,0 -1.609375,1.28125 -1.609375,1.53125 0,0.109375 0.109375,0.109375 0.125,0.109375 0.078125,0 0.109375,-0.03125 0.125,-0.109375 0.34375,-1.0625 1,-1.3125 1.34375,-1.3125 0.1875,0 0.53125,0.09375 0.53125,0.671875 0,0.3125 -0.171875,0.96875 -0.53125,2.375 -0.15625,0.609375 -0.515625,1.03125 -0.953125,1.03125 -0.0625,0 -0.28125,0 -0.5,-0.125 0.25,-0.0625 0.46875,-0.265625 0.46875,-0.546875 0,-0.265625 -0.21875,-0.34375 -0.359375,-0.34375 -0.3125,0 -0.546875,0.25 -0.546875,0.578125 0,0.453125 0.484375,0.65625 0.921875,0.65625 0.671875,0 1.03125,-0.703125 1.046875,-0.75 0.125,0.359375 0.484375,0.75 1.078125,0.75 1.03125,0 1.59375,-1.28125 1.59375,-1.53125 0,-0.109375 -0.078125,-0.109375 -0.109375,-0.109375 -0.09375,0 -0.109375,0.046875 -0.140625,0.109375 -0.328125,1.078125 -1,1.3125 -1.3125,1.3125 -0.390625,0 -0.546875,-0.3125 -0.546875,-0.65625 0,-0.21875 0.046875,-0.4375 0.15625,-0.875 z m 0,0"
             id="id-df4a14d9-d881-4bf6-9d6e-17c2400e202e"
             style="fill:#e54f4f;fill-opacity:1;stroke:none;stroke-opacity:1" />
        </g>
      </g>
      <g
         fill="#000000"
         fill-opacity="1"
         id="id-794056c0-ab33-4460-adf2-c962c8d7e613"
         transform="matrix(0.59793595,0,0,0.59793595,69.06322,104.79122)"
         style="fill:#e54f4f;fill-opacity:1;stroke:none;stroke-opacity:1">
        <g
           transform="translate(310.838,134.765)"
           id="g72"
           style="fill:#e54f4f;fill-opacity:1;stroke:none;stroke-opacity:1">
          <path
             d="m 6.5625,-2.296875 c 0.171875,0 0.359375,0 0.359375,-0.203125 0,-0.1875 -0.1875,-0.1875 -0.359375,-0.1875 H 1.171875 c -0.171875,0 -0.34375,0 -0.34375,0.1875 0,0.203125 0.171875,0.203125 0.34375,0.203125 z m 0,0"
             id="id-22907403-f169-42cc-b4f2-b3969b3904bd"
             style="fill:#e54f4f;fill-opacity:1;stroke:none;stroke-opacity:1" />
        </g>
      </g>
      <g
         fill="#000000"
         fill-opacity="1"
         id="id-69d4ecef-89cd-4d89-904a-519393f73b2d"
         transform="matrix(0.59793595,0,0,0.59793595,69.06322,104.79122)"
         style="fill:#e54f4f;fill-opacity:1;stroke:none;stroke-opacity:1">
        <g
           transform="translate(320.801,134.765)"
           id="g73"
           style="fill:#e54f4f;fill-opacity:1;stroke:none;stroke-opacity:1">
          <path
             d="m 2.9375,-6.375 c 0,-0.25 0,-0.265625 -0.234375,-0.265625 C 2.078125,-6 1.203125,-6 0.890625,-6 v 0.3125 c 0.203125,0 0.78125,0 1.296875,-0.265625 v 5.171875 c 0,0.359375 -0.03125,0.46875 -0.921875,0.46875 h -0.3125 V 0 c 0.34375,-0.03125 1.203125,-0.03125 1.609375,-0.03125 0.390625,0 1.265625,0 1.609375,0.03125 v -0.3125 h -0.3125 c -0.90625,0 -0.921875,-0.109375 -0.921875,-0.46875 z m 0,0"
             id="id-153eb7e8-af97-4d7c-9639-778065851a2b"
             style="fill:#e54f4f;fill-opacity:1;stroke:none;stroke-opacity:1" />
        </g>
      </g>
    </g>
    <path
       style="fill:#e56262;fill-opacity:1;stroke:#828282;stroke-width:0.5;stroke-dasharray:none;stroke-opacity:1;marker-end:url(#Triangle)"
       d="m 166.02895,156.60418 -9.75106,-7.18225"
       id="path76" />
    <path
       style="fill:#e56262;fill-opacity:1;stroke:#828282;stroke-width:0.5;stroke-dasharray:none;stroke-opacity:1;marker-end:url(#marker78)"
       d="M 170.79318,201.05986 H 155.84339"
       id="path77" />
    <g
       id="g37"
       transform="matrix(1.4730684,0,0,1.4730684,-134.10506,-110.65706)"
       style="fill:#4f4e4e;fill-opacity:1">
      <g
         transform="matrix(0.59793595,0,0,0.59793595,204.72951,185.37206)"
         id="g7"
         style="fill:#4f4e4e;fill-opacity:1">
        <path
           d="M 4.140625,-3.3125 C 4.234375,-3.546875 4.40625,-3.984375 5.0625,-3.984375 v -0.3125 c -0.234375,0.015625 -0.515625,0.03125 -0.75,0.03125 -0.234375,0 -0.6875,-0.015625 -0.859375,-0.03125 v 0.3125 c 0.359375,0 0.46875,0.234375 0.46875,0.421875 0,0.09375 -0.015625,0.140625 -0.046875,0.25 L 2.84375,-0.78125 1.734375,-3.5625 c -0.0625,-0.125 -0.0625,-0.140625 -0.0625,-0.171875 0,-0.25 0.390625,-0.25 0.578125,-0.25 v -0.3125 c -0.3125,0.015625 -0.859375,0.03125 -1.09375,0.03125 -0.265625,0 -0.671875,-0.015625 -0.96875,-0.03125 v 0.3125 c 0.625,0 0.671875,0.0625 0.796875,0.359375 l 1.4375,3.546875 C 2.484375,0.0625 2.5,0.109375 2.625,0.109375 c 0.140625,0 0.171875,-0.09375 0.21875,-0.1875 z m 0,0"
           id="path7"
           style="fill:#4f4e4e;fill-opacity:1" />
      </g>
      <g
         transform="matrix(0.59793595,0,0,0.59793595,207.70663,185.37206)"
         id="g9"
         style="fill:#4f4e4e;fill-opacity:1">
        <path
           d="M 1.109375,-2.515625 C 1.171875,-4 2.015625,-4.25 2.359375,-4.25 c 1.015625,0 1.125,1.34375 1.125,1.734375 z m 0,0.21875 h 2.78125 c 0.21875,0 0.25,0 0.25,-0.21875 0,-0.984375 -0.546875,-1.953125 -1.78125,-1.953125 -1.15625,0 -2.078125,1.03125 -2.078125,2.28125 0,1.328125 1.046875,2.296875 2.1875,2.296875 C 3.6875,0.109375 4.140625,-1 4.140625,-1.1875 4.140625,-1.28125 4.0625,-1.3125 4,-1.3125 c -0.078125,0 -0.109375,0.0625 -0.125,0.140625 -0.34375,1.03125 -1.25,1.03125 -1.34375,1.03125 -0.5,0 -0.890625,-0.296875 -1.125,-0.671875 -0.296875,-0.46875 -0.296875,-1.125 -0.296875,-1.484375 z m 0,0"
           id="path8"
           style="fill:#4f4e4e;fill-opacity:1" />
      </g>
      <g
         transform="matrix(0.59793595,0,0,0.59793595,210.35369,185.37206)"
         id="g21"
         style="fill:#4f4e4e;fill-opacity:1">
        <path
           d="M 1.671875,-3.3125 V -4.40625 L 0.28125,-4.296875 v 0.3125 c 0.703125,0 0.78125,0.0625 0.78125,0.5625 V -0.75 c 0,0.4375 -0.109375,0.4375 -0.78125,0.4375 V 0 c 0.390625,-0.015625 0.859375,-0.03125 1.140625,-0.03125 0.390625,0 0.859375,0 1.265625,0.03125 V -0.3125 H 2.46875 c -0.734375,0 -0.75,-0.109375 -0.75,-0.46875 V -2.3125 c 0,-0.984375 0.421875,-1.875 1.171875,-1.875 0.0625,0 0.09375,0 0.109375,0.015625 -0.03125,0 -0.234375,0.125 -0.234375,0.390625 0,0.265625 0.21875,0.421875 0.4375,0.421875 0.171875,0 0.421875,-0.125 0.421875,-0.4375 0,-0.3125 -0.3125,-0.609375 -0.734375,-0.609375 -0.734375,0 -1.09375,0.671875 -1.21875,1.09375 z m 0,0"
           id="path21"
           style="fill:#4f4e4e;fill-opacity:1" />
      </g>
      <g
         transform="matrix(0.59793595,0,0,0.59793595,212.68744,185.37206)"
         id="g22"
         style="fill:#4f4e4e;fill-opacity:1">
        <path
           d="m 1.71875,-3.984375 h 1.4375 v -0.3125 H 1.71875 V -6.125 h -0.25 c 0,0.8125 -0.296875,1.875 -1.28125,1.921875 v 0.21875 h 0.84375 v 2.75 c 0,1.21875 0.9375,1.34375 1.296875,1.34375 0.703125,0 0.984375,-0.703125 0.984375,-1.34375 v -0.5625 h -0.25 V -1.25 c 0,0.734375 -0.296875,1.109375 -0.671875,1.109375 -0.671875,0 -0.671875,-0.90625 -0.671875,-1.078125 z m 0,0"
           id="path22"
           style="fill:#4f4e4e;fill-opacity:1" />
      </g>
      <g
         transform="matrix(0.59793595,0,0,0.59793595,215.00384,185.37206)"
         id="g24"
         style="fill:#4f4e4e;fill-opacity:1">
        <path
           d="M 1.109375,-2.515625 C 1.171875,-4 2.015625,-4.25 2.359375,-4.25 c 1.015625,0 1.125,1.34375 1.125,1.734375 z m 0,0.21875 h 2.78125 c 0.21875,0 0.25,0 0.25,-0.21875 0,-0.984375 -0.546875,-1.953125 -1.78125,-1.953125 -1.15625,0 -2.078125,1.03125 -2.078125,2.28125 0,1.328125 1.046875,2.296875 2.1875,2.296875 C 3.6875,0.109375 4.140625,-1 4.140625,-1.1875 4.140625,-1.28125 4.0625,-1.3125 4,-1.3125 c -0.078125,0 -0.109375,0.0625 -0.125,0.140625 -0.34375,1.03125 -1.25,1.03125 -1.34375,1.03125 -0.5,0 -0.890625,-0.296875 -1.125,-0.671875 -0.296875,-0.46875 -0.296875,-1.125 -0.296875,-1.484375 z m 0,0"
           id="path23"
           style="fill:#4f4e4e;fill-opacity:1" />
      </g>
      <g
         transform="matrix(0.59793595,0,0,0.59793595,217.6509,185.37206)"
         id="g36"
         style="fill:#4f4e4e;fill-opacity:1">
        <path
           d="M 2.859375,-2.34375 C 3.15625,-2.71875 3.53125,-3.203125 3.78125,-3.46875 4.09375,-3.828125 4.5,-3.984375 4.96875,-3.984375 v -0.3125 c -0.265625,0.015625 -0.5625,0.03125 -0.828125,0.03125 -0.296875,0 -0.828125,-0.015625 -0.953125,-0.03125 v 0.3125 c 0.21875,0.015625 0.296875,0.140625 0.296875,0.3125 0,0.15625 -0.109375,0.28125 -0.15625,0.34375 L 2.71875,-2.546875 1.9375,-3.5625 C 1.84375,-3.65625 1.84375,-3.671875 1.84375,-3.734375 c 0,-0.15625 0.15625,-0.25 0.34375,-0.25 v -0.3125 c -0.25,0.015625 -0.90625,0.03125 -1.078125,0.03125 -0.203125,0 -0.671875,-0.015625 -0.9375,-0.03125 v 0.3125 c 0.703125,0 0.703125,0 1.171875,0.609375 l 0.984375,1.28125 -0.9375,1.1875 C 0.921875,-0.328125 0.328125,-0.3125 0.125,-0.3125 V 0 c 0.25,-0.015625 0.5625,-0.03125 0.828125,-0.03125 0.28125,0 0.703125,0.015625 0.9375,0.03125 v -0.3125 c -0.21875,-0.03125 -0.28125,-0.15625 -0.28125,-0.3125 0,-0.21875 0.28125,-0.546875 0.890625,-1.265625 l 0.765625,1 C 3.34375,-0.78125 3.46875,-0.625 3.46875,-0.5625 c 0,0.09375 -0.09375,0.25 -0.359375,0.25 V 0 C 3.40625,-0.015625 3.96875,-0.03125 4.1875,-0.03125 c 0.265625,0 0.65625,0.015625 0.953125,0.03125 v -0.3125 c -0.53125,0 -0.71875,-0.015625 -0.9375,-0.3125 z m 0,0"
           id="path36"
           style="fill:#4f4e4e;fill-opacity:1" />
      </g>
    </g>
  </g>
</svg>
