<?xml version="1.0" encoding="UTF-8" standalone="no"?>
<!-- Created with Inkscape (http://www.inkscape.org/) -->

<svg
   width="175.30165mm"
   height="39.153389mm"
   viewBox="0 0 175.30165 39.153389"
   version="1.1"
   id="svg1"
   sodipodi:docname="relations1.svg"
   inkscape:version="1.4 (e7c3feb1, 2024-10-09)"
   xmlns:inkscape="http://www.inkscape.org/namespaces/inkscape"
   xmlns:sodipodi="http://sodipodi.sourceforge.net/DTD/sodipodi-0.dtd"
   xmlns="http://www.w3.org/2000/svg"
   xmlns:svg="http://www.w3.org/2000/svg">
  <sodipodi:namedview
     id="namedview1"
     pagecolor="#ffffff"
     bordercolor="#000000"
     borderopacity="0.25"
     inkscape:showpageshadow="2"
     inkscape:pageopacity="0.0"
     inkscape:pagecheckerboard="0"
     inkscape:deskcolor="#d1d1d1"
     inkscape:document-units="mm"
     showgrid="true"
     inkscape:zoom="1.3227535"
     inkscape:cx="486.48521"
     inkscape:cy="139.48177"
     inkscape:window-width="1512"
     inkscape:window-height="916"
     inkscape:window-x="333"
     inkscape:window-y="38"
     inkscape:window-maximized="0"
     inkscape:current-layer="layer1">
    <inkscape:grid
       id="grid1"
       units="mm"
       originx="-4.8677106"
       originy="-81.360462"
       spacingx="0.99999998"
       spacingy="1"
       empcolor="#0099e5"
       empopacity="0.30196078"
       color="#0099e5"
       opacity="0.14901961"
       empspacing="5"
       enabled="true"
       visible="true" />
  </sodipodi:namedview>
  <defs
     id="defs1">
    <marker
       style="overflow:visible"
       id="marker19"
       refX="0"
       refY="0"
       orient="auto-start-reverse"
       inkscape:stockid="Triangle arrow"
       markerWidth="1"
       markerHeight="1"
       viewBox="0 0 1 1"
       inkscape:isstock="true"
       inkscape:collect="always"
       preserveAspectRatio="xMidYMid">
      <path
         transform="scale(0.5)"
         style="fill:context-stroke;fill-rule:evenodd;stroke:context-stroke;stroke-width:1pt"
         d="M 5.77,0 -2.88,5 V -5 Z"
         id="path19" />
    </marker>
    <marker
       style="overflow:visible"
       id="Triangle"
       refX="0"
       refY="0"
       orient="auto-start-reverse"
       inkscape:stockid="Triangle arrow"
       markerWidth="1"
       markerHeight="1"
       viewBox="0 0 1 1"
       inkscape:isstock="true"
       inkscape:collect="always"
       preserveAspectRatio="xMidYMid">
      <path
         transform="scale(0.5)"
         style="fill:context-stroke;fill-rule:evenodd;stroke:context-stroke;stroke-width:1pt"
         d="M 5.77,0 -2.88,5 V -5 Z"
         id="path135" />
    </marker>
    <defs
       id="id-f83fea94-618a-49e0-bd5f-c9a2a877a456">
      <g
         id="id-cb730483-5629-418c-b078-15a7c31219b2">
        <g
           id="id-0a1a8c2b-90f6-44c9-b161-3e708f6f979f">
          <path
             d="m 3.65625,-3.984375 h 0.859375 c 0.203125,0 0.296875,0 0.296875,-0.203125 0,-0.109375 -0.09375,-0.109375 -0.265625,-0.109375 H 3.71875 L 3.921875,-5.4375 c 0.046875,-0.203125 0.1875,-0.90625 0.25,-1.03125 0.078125,-0.1875 0.25,-0.34375 0.46875,-0.34375 0.03125,0 0.296875,0 0.484375,0.1875 -0.4375,0.03125 -0.546875,0.390625 -0.546875,0.53125 0,0.234375 0.1875,0.359375 0.375,0.359375 C 5.21875,-5.734375 5.5,-5.96875 5.5,-6.34375 c 0,-0.453125 -0.453125,-0.6875 -0.859375,-0.6875 -0.34375,0 -0.96875,0.1875 -1.265625,1.171875 -0.0625,0.203125 -0.09375,0.3125 -0.328125,1.5625 h -0.6875 c -0.203125,0 -0.3125,0 -0.3125,0.1875 0,0.125 0.09375,0.125 0.28125,0.125 h 0.65625 L 2.25,-0.046875 c -0.1875,0.96875 -0.359375,1.875 -0.875,1.875 -0.046875,0 -0.28125,0 -0.484375,-0.1875 C 1.359375,1.609375 1.453125,1.25 1.453125,1.109375 1.453125,0.875 1.265625,0.75 1.078125,0.75 0.8125,0.75 0.53125,0.984375 0.53125,1.359375 c 0,0.4375 0.4375,0.6875 0.84375,0.6875 0.546875,0 0.953125,-0.59375 1.125,-0.96875 0.328125,-0.625 0.546875,-1.828125 0.5625,-1.90625 z m 0,0"
             id="id-8bf6b3ed-fd0d-4108-b1e8-9e5dd7a76f57" />
        </g>
        <g
           id="id-9b23e227-689d-4c6a-bc83-03f7abb0dd49">
          <path
             d="M 4.6875,-3.765625 C 4.703125,-3.8125 4.71875,-3.875 4.71875,-3.9375 c 0,-0.171875 -0.109375,-0.265625 -0.28125,-0.265625 -0.09375,0 -0.375,0.0625 -0.40625,0.421875 -0.1875,-0.359375 -0.53125,-0.625 -0.9375,-0.625 -1.125,0 -2.359375,1.390625 -2.359375,2.828125 0,0.984375 0.59375,1.578125 1.3125,1.578125 0.59375,0 1.0625,-0.46875 1.15625,-0.578125 L 3.21875,-0.5625 C 3.015625,0.3125 2.890625,0.734375 2.890625,0.75 2.84375,0.84375 2.515625,1.828125 1.453125,1.828125 1.265625,1.828125 0.9375,1.8125 0.65625,1.71875 0.953125,1.640625 1.0625,1.375 1.0625,1.203125 c 0,-0.15625 -0.109375,-0.34375 -0.375,-0.34375 -0.21875,0 -0.53125,0.171875 -0.53125,0.578125 0,0.40625 0.359375,0.609375 1.3125,0.609375 1.25,0 1.96875,-0.78125 2.125,-1.375 z M 3.40625,-1.28125 C 3.34375,-1.015625 3.109375,-0.765625 2.890625,-0.578125 2.6875,-0.40625 2.375,-0.21875 2.078125,-0.21875 c -0.5,0 -0.640625,-0.515625 -0.640625,-0.921875 0,-0.46875 0.28125,-1.65625 0.5625,-2.15625 C 2.265625,-3.78125 2.6875,-4.1875 3.109375,-4.1875 c 0.65625,0 0.796875,0.8125 0.796875,0.859375 0,0.046875 -0.015625,0.109375 -0.03125,0.140625 z m 0,0"
             id="id-6934e4ca-d50a-4b0e-8295-c3b81e4fb5c5" />
        </g>
        <g
           id="id-131b208e-f1f9-4dd0-9b3c-97ee90156c10">
          <path
             d="m 2.859375,-6.8125 c 0,0 0,-0.109375 -0.125,-0.109375 -0.234375,0 -0.953125,0.078125 -1.21875,0.109375 -0.078125,0 -0.1875,0.015625 -0.1875,0.1875 0,0.125 0.09375,0.125 0.234375,0.125 0.484375,0 0.5,0.0625 0.5,0.171875 L 2.03125,-6.125 0.59375,-0.390625 c -0.046875,0.140625 -0.046875,0.15625 -0.046875,0.21875 0,0.234375 0.203125,0.28125 0.296875,0.28125 0.15625,0 0.3125,-0.125 0.359375,-0.265625 l 0.1875,-0.75 0.21875,-0.890625 C 1.671875,-2.03125 1.734375,-2.25 1.78125,-2.46875 1.796875,-2.53125 1.890625,-2.859375 1.890625,-2.921875 1.921875,-3.015625 2.234375,-3.5625 2.578125,-3.84375 2.796875,-4 3.09375,-4.1875 3.53125,-4.1875 c 0.421875,0 0.53125,0.34375 0.53125,0.703125 0,0.53125 -0.375,1.625 -0.609375,2.234375 C 3.375,-1.03125 3.3125,-0.90625 3.3125,-0.703125 c 0,0.46875 0.359375,0.8125 0.828125,0.8125 0.9375,0 1.296875,-1.453125 1.296875,-1.53125 0,-0.109375 -0.078125,-0.109375 -0.109375,-0.109375 -0.109375,0 -0.109375,0.03125 -0.15625,0.1875 -0.140625,0.53125 -0.46875,1.234375 -1.015625,1.234375 -0.171875,0 -0.234375,-0.09375 -0.234375,-0.328125 0,-0.25 0.078125,-0.484375 0.171875,-0.703125 0.15625,-0.4375 0.609375,-1.625 0.609375,-2.203125 0,-0.640625 -0.390625,-1.0625 -1.140625,-1.0625 -0.625,0 -1.109375,0.3125 -1.484375,0.765625 z m 0,0"
             id="id-f8f847ff-44d5-44e5-9926-f6b190a8063b" />
        </g>
      </g>
    </defs>
    <g
       id="id-2e266809-bd36-496e-81b1-1af827a8bf56-1">
      <g
         id="id-0b07ece6-8988-4ed5-a1eb-b010f1460a98-8">
        <path
           d="M 1.78125,-1.140625 C 1.390625,-0.484375 1,-0.34375 0.5625,-0.3125 0.4375,-0.296875 0.34375,-0.296875 0.34375,-0.109375 0.34375,-0.046875 0.40625,0 0.484375,0 0.75,0 1.0625,-0.03125 1.328125,-0.03125 c 0.34375,0 0.6875,0.03125 1,0.03125 0.0625,0 0.1875,0 0.1875,-0.1875 0,-0.109375 -0.078125,-0.125 -0.15625,-0.125 -0.21875,-0.015625 -0.46875,-0.09375 -0.46875,-0.34375 0,-0.125 0.0625,-0.234375 0.140625,-0.375 l 0.765625,-1.265625 h 2.5 c 0.015625,0.203125 0.15625,1.5625 0.15625,1.65625 0,0.296875 -0.515625,0.328125 -0.71875,0.328125 C 4.59375,-0.3125 4.5,-0.3125 4.5,-0.109375 4.5,0 4.609375,0 4.640625,0 5.046875,0 5.46875,-0.03125 5.875,-0.03125 6.125,-0.03125 6.765625,0 7.015625,0 7.0625,0 7.1875,0 7.1875,-0.203125 7.1875,-0.3125 7.09375,-0.3125 6.953125,-0.3125 6.34375,-0.3125 6.34375,-0.375 6.3125,-0.671875 l -0.609375,-6.21875 c -0.015625,-0.203125 -0.015625,-0.25 -0.1875,-0.25 -0.15625,0 -0.203125,0.078125 -0.265625,0.171875 z M 2.984375,-2.609375 4.9375,-5.90625 5.265625,-2.609375 Z m 0,0"
           id="id-8823cbed-3e12-4b50-94b3-b2bfad40fc78-4" />
      </g>
      <g
         id="id-ab20a03d-9424-4b46-9f61-ed175cd37e8d-0">
        <path
           d="M 1.59375,-0.78125 C 1.5,-0.390625 1.46875,-0.3125 0.6875,-0.3125 c -0.171875,0 -0.265625,0 -0.265625,0.203125 C 0.421875,0 0.515625,0 0.6875,0 H 4.25 C 5.828125,0 7,-1.171875 7,-2.15625 7,-2.875 6.421875,-3.453125 5.453125,-3.5625 6.484375,-3.75 7.53125,-4.484375 7.53125,-5.4375 c 0,-0.734375 -0.65625,-1.375 -1.84375,-1.375 H 2.328125 c -0.1875,0 -0.28125,0 -0.28125,0.203125 0,0.109375 0.09375,0.109375 0.28125,0.109375 0.015625,0 0.203125,0 0.375,0.015625 0.171875,0.03125 0.265625,0.03125 0.265625,0.171875 0,0.03125 -0.015625,0.0625 -0.03125,0.1875 z m 1.5,-2.875 0.625,-2.46875 C 3.8125,-6.46875 3.828125,-6.5 4.25,-6.5 h 1.296875 c 0.875,0 1.078125,0.59375 1.078125,1.03125 0,0.875 -0.859375,1.8125 -2.0625,1.8125 z m -0.4375,3.34375 c -0.140625,0 -0.15625,0 -0.21875,0 -0.109375,-0.015625 -0.140625,-0.03125 -0.140625,-0.109375 0,-0.03125 0,-0.046875 0.0625,-0.21875 l 0.6875,-2.78125 h 1.875 c 0.953125,0 1.15625,0.734375 1.15625,1.15625 C 6.078125,-1.28125 5.1875,-0.3125 4,-0.3125 Z m 0,0"
           id="id-58ca228a-890b-40cc-a479-880a8640e210-8" />
      </g>
    </g>
    <g
       id="id-2e266809-bd36-496e-81b1-1af827a8bf56-4">
      <g
         id="id-0b07ece6-8988-4ed5-a1eb-b010f1460a98-2">
        <path
           d="M 1.78125,-1.140625 C 1.390625,-0.484375 1,-0.34375 0.5625,-0.3125 0.4375,-0.296875 0.34375,-0.296875 0.34375,-0.109375 0.34375,-0.046875 0.40625,0 0.484375,0 0.75,0 1.0625,-0.03125 1.328125,-0.03125 c 0.34375,0 0.6875,0.03125 1,0.03125 0.0625,0 0.1875,0 0.1875,-0.1875 0,-0.109375 -0.078125,-0.125 -0.15625,-0.125 -0.21875,-0.015625 -0.46875,-0.09375 -0.46875,-0.34375 0,-0.125 0.0625,-0.234375 0.140625,-0.375 l 0.765625,-1.265625 h 2.5 c 0.015625,0.203125 0.15625,1.5625 0.15625,1.65625 0,0.296875 -0.515625,0.328125 -0.71875,0.328125 C 4.59375,-0.3125 4.5,-0.3125 4.5,-0.109375 4.5,0 4.609375,0 4.640625,0 5.046875,0 5.46875,-0.03125 5.875,-0.03125 6.125,-0.03125 6.765625,0 7.015625,0 7.0625,0 7.1875,0 7.1875,-0.203125 7.1875,-0.3125 7.09375,-0.3125 6.953125,-0.3125 6.34375,-0.3125 6.34375,-0.375 6.3125,-0.671875 l -0.609375,-6.21875 c -0.015625,-0.203125 -0.015625,-0.25 -0.1875,-0.25 -0.15625,0 -0.203125,0.078125 -0.265625,0.171875 z M 2.984375,-2.609375 4.9375,-5.90625 5.265625,-2.609375 Z m 0,0"
           id="id-8823cbed-3e12-4b50-94b3-b2bfad40fc78-9" />
      </g>
      <g
         id="id-ab20a03d-9424-4b46-9f61-ed175cd37e8d-2">
        <path
           d="M 1.59375,-0.78125 C 1.5,-0.390625 1.46875,-0.3125 0.6875,-0.3125 c -0.171875,0 -0.265625,0 -0.265625,0.203125 C 0.421875,0 0.515625,0 0.6875,0 H 4.25 C 5.828125,0 7,-1.171875 7,-2.15625 7,-2.875 6.421875,-3.453125 5.453125,-3.5625 6.484375,-3.75 7.53125,-4.484375 7.53125,-5.4375 c 0,-0.734375 -0.65625,-1.375 -1.84375,-1.375 H 2.328125 c -0.1875,0 -0.28125,0 -0.28125,0.203125 0,0.109375 0.09375,0.109375 0.28125,0.109375 0.015625,0 0.203125,0 0.375,0.015625 0.171875,0.03125 0.265625,0.03125 0.265625,0.171875 0,0.03125 -0.015625,0.0625 -0.03125,0.1875 z m 1.5,-2.875 0.625,-2.46875 C 3.8125,-6.46875 3.828125,-6.5 4.25,-6.5 h 1.296875 c 0.875,0 1.078125,0.59375 1.078125,1.03125 0,0.875 -0.859375,1.8125 -2.0625,1.8125 z m -0.4375,3.34375 c -0.140625,0 -0.15625,0 -0.21875,0 -0.109375,-0.015625 -0.140625,-0.03125 -0.140625,-0.109375 0,-0.03125 0,-0.046875 0.0625,-0.21875 l 0.6875,-2.78125 h 1.875 c 0.953125,0 1.15625,0.734375 1.15625,1.15625 C 6.078125,-1.28125 5.1875,-0.3125 4,-0.3125 Z m 0,0"
           id="id-58ca228a-890b-40cc-a479-880a8640e210-89" />
      </g>
    </g>
    <defs
       id="id-abaa2aa8-df7e-4f12-92fe-783a7429fdc8">
      <g
         id="id-2e266809-bd36-496e-81b1-1af827a8bf56">
        <g
           id="id-0b07ece6-8988-4ed5-a1eb-b010f1460a98">
          <path
             d="M 1.78125,-1.140625 C 1.390625,-0.484375 1,-0.34375 0.5625,-0.3125 0.4375,-0.296875 0.34375,-0.296875 0.34375,-0.109375 0.34375,-0.046875 0.40625,0 0.484375,0 0.75,0 1.0625,-0.03125 1.328125,-0.03125 c 0.34375,0 0.6875,0.03125 1,0.03125 0.0625,0 0.1875,0 0.1875,-0.1875 0,-0.109375 -0.078125,-0.125 -0.15625,-0.125 -0.21875,-0.015625 -0.46875,-0.09375 -0.46875,-0.34375 0,-0.125 0.0625,-0.234375 0.140625,-0.375 l 0.765625,-1.265625 h 2.5 c 0.015625,0.203125 0.15625,1.5625 0.15625,1.65625 0,0.296875 -0.515625,0.328125 -0.71875,0.328125 C 4.59375,-0.3125 4.5,-0.3125 4.5,-0.109375 4.5,0 4.609375,0 4.640625,0 5.046875,0 5.46875,-0.03125 5.875,-0.03125 6.125,-0.03125 6.765625,0 7.015625,0 7.0625,0 7.1875,0 7.1875,-0.203125 7.1875,-0.3125 7.09375,-0.3125 6.953125,-0.3125 6.34375,-0.3125 6.34375,-0.375 6.3125,-0.671875 l -0.609375,-6.21875 c -0.015625,-0.203125 -0.015625,-0.25 -0.1875,-0.25 -0.15625,0 -0.203125,0.078125 -0.265625,0.171875 z M 2.984375,-2.609375 4.9375,-5.90625 5.265625,-2.609375 Z m 0,0"
             id="id-8823cbed-3e12-4b50-94b3-b2bfad40fc78" />
        </g>
        <g
           id="id-ab20a03d-9424-4b46-9f61-ed175cd37e8d">
          <path
             d="M 1.59375,-0.78125 C 1.5,-0.390625 1.46875,-0.3125 0.6875,-0.3125 c -0.171875,0 -0.265625,0 -0.265625,0.203125 C 0.421875,0 0.515625,0 0.6875,0 H 4.25 C 5.828125,0 7,-1.171875 7,-2.15625 7,-2.875 6.421875,-3.453125 5.453125,-3.5625 6.484375,-3.75 7.53125,-4.484375 7.53125,-5.4375 c 0,-0.734375 -0.65625,-1.375 -1.84375,-1.375 H 2.328125 c -0.1875,0 -0.28125,0 -0.28125,0.203125 0,0.109375 0.09375,0.109375 0.28125,0.109375 0.015625,0 0.203125,0 0.375,0.015625 0.171875,0.03125 0.265625,0.03125 0.265625,0.171875 0,0.03125 -0.015625,0.0625 -0.03125,0.1875 z m 1.5,-2.875 0.625,-2.46875 C 3.8125,-6.46875 3.828125,-6.5 4.25,-6.5 h 1.296875 c 0.875,0 1.078125,0.59375 1.078125,1.03125 0,0.875 -0.859375,1.8125 -2.0625,1.8125 z m -0.4375,3.34375 c -0.140625,0 -0.15625,0 -0.21875,0 -0.109375,-0.015625 -0.140625,-0.03125 -0.140625,-0.109375 0,-0.03125 0,-0.046875 0.0625,-0.21875 l 0.6875,-2.78125 h 1.875 c 0.953125,0 1.15625,0.734375 1.15625,1.15625 C 6.078125,-1.28125 5.1875,-0.3125 4,-0.3125 Z m 0,0"
             id="id-58ca228a-890b-40cc-a479-880a8640e210" />
        </g>
      </g>
    </defs>
  </defs>
  <g
     inkscape:label="Layer 1"
     inkscape:groupmode="layer"
     id="layer1"
     transform="translate(-4.8677107,-81.360459)">
    <path
       style="fill:none;stroke:#000000;stroke-width:0.264583"
       d="m 15,92.270082 c -2.357023,0 -4.230098,3.141299 -4.999997,5.000001 -0.7698988,1.858702 0.7699,3.141297 0,5.000007 -0.7698998,1.8587 -5.0000008,2.64297 -5.0000008,5 0,2.35702 1.997379,4.51274 5.0000008,4.99999 3.002622,0.48726 8.582247,-2.70602 9.999998,-4.99999 1.417751,-2.29397 0,-3.33334 0,-5 0,-1.66667 0.7699,-3.141305 0,-5.000007 C 19.230101,95.411381 17.357023,92.270082 15,92.270082 Z"
       id="path1"
       sodipodi:nodetypes="zzzzzzzzz" />
    <path
       style="fill:none;stroke:#000000;stroke-width:0.264583"
       d="m 35.000002,96.947623 c 1.5398,-0.637806 3.460202,0.637806 5.000001,0 2.177605,-0.901994 2.642976,-5.000001 4.999998,-5.000001 2.357023,0 4.622447,2.673413 5,5.000001 0.596964,3.678657 -2.820913,6.976687 -5,10.000007 -1.378175,1.91211 -2.822394,4.098 -4.999998,5 -1.5398,0.6378 -3.821489,1.17851 -5.000001,0 -1.178511,-1.17851 1.178511,-3.82149 0,-5 -1.178511,-1.17851 -3.821489,1.17851 -5,0 -1.178512,-1.17851 -0.637806,-3.4602 0,-5.00001 0.901994,-2.177602 2.822395,-4.098003 5,-4.999997 z"
       id="path2"
       sodipodi:nodetypes="aaaaaaaaaaa" />
    <circle
       style="fill:none;stroke:#000000;stroke-width:0.264583"
       id="path8"
       cx="15"
       cy="95.5"
       r="0.5" />
    <circle
       style="fill:none;stroke:#000000;stroke-width:0.264583"
       id="path8-1"
       cx="14"
       cy="100"
       r="0.5" />
    <circle
       style="fill:none;stroke:#000000;stroke-width:0.264583"
       id="path8-7"
       cx="14"
       cy="105"
       r="0.5" />
    <circle
       style="fill:none;stroke:#000000;stroke-width:0.264583"
       id="path8-75"
       cx="11"
       cy="109"
       r="0.5" />
    <circle
       style="fill:none;stroke:#000000;stroke-width:0.264583"
       id="path8-5"
       cx="43"
       cy="98"
       r="0.5" />
    <circle
       style="fill:none;stroke:#000000;stroke-width:0.264583"
       id="path8-76"
       cx="33.5"
       cy="104"
       r="0.5" />
    <circle
       style="fill:none;stroke:#000000;stroke-width:0.264583"
       id="path8-9"
       cx="37"
       cy="100"
       r="0.5" />
    <circle
       style="fill:none;stroke:#000000;stroke-width:0.264583"
       id="path8-3"
       cx="39"
       cy="109"
       r="0.5" />
    <path
       style="fill:none;stroke:#000000;stroke-width:0.265;stroke-dasharray:none;marker-end:url(#Triangle)"
       d="m 15,95.499998 c 0,0 18.801518,-8.816753 27.000001,1.499999"
       id="path10"
       sodipodi:nodetypes="cc" />
    <path
       style="fill:none;stroke:#000000;stroke-width:0.265;stroke-dasharray:none;marker-end:url(#Triangle)"
       d="m 14,99.999997 c 0,0 6.298549,-3.699393 21.461504,3e-6"
       id="path11"
       sodipodi:nodetypes="cc" />
    <path
       style="fill:none;stroke:#000000;stroke-width:0.265;stroke-dasharray:none;marker-end:url(#Triangle)"
       d="m 14,105 c 0,0 8.590654,-4.60094 18.044665,-1.63229"
       id="path12"
       sodipodi:nodetypes="cc" />
    <path
       style="fill:none;stroke:#000000;stroke-width:0.265;stroke-dasharray:none;marker-end:url(#Triangle)"
       d="m 11,108.99999 c 0,0 13.115849,9.44924 27.000001,1.00001"
       id="path13"
       sodipodi:nodetypes="cc" />
    <path
       style="fill:none;stroke:#000000;stroke-width:0.265;stroke-dasharray:none;marker-end:url(#Triangle)"
       d="m 15,95.499996 c 0,0 13.601209,-2.437301 21.000001,3.500001"
       id="path14"
       sodipodi:nodetypes="cc" />
    <path
       d="m 29.330703,86.702219 h 0.463099 c 0.10946,0 0.15998,0 0.15998,-0.109459 0,-0.05894 -0.05052,-0.05894 -0.143141,-0.05894 h -0.446258 l 0.109459,-0.614659 c 0.02527,-0.10946 0.10104,-0.48836 0.13472,-0.55572 0.0421,-0.10104 0.13472,-0.18524 0.2526,-0.18524 0.01685,0 0.15998,0 0.26102,0.101041 -0.23576,0.01684 -0.2947,0.210499 -0.2947,0.286279 0,0.1263 0.10104,0.19366 0.20208,0.19366 0.143139,0 0.294699,-0.126299 0.294699,-0.32838 0,-0.244179 -0.244179,-0.370479 -0.463099,-0.370479 -0.18524,0 -0.522039,0.101039 -0.682019,0.631499 -0.03368,0.10946 -0.05052,0.1684 -0.17682,0.841999 h -0.370479 c -0.10946,0 -0.1684,0 -0.1684,0.101039 0,0.06736 0.05052,0.06736 0.151559,0.06736 h 0.35364 l -0.39574,2.121837 c -0.101039,0.52204 -0.193659,1.010399 -0.47152,1.010399 -0.02526,0 -0.151559,0 -0.261018,-0.101039 0.2526,-0.01685 0.303119,-0.2105 0.303119,-0.28628 0,-0.1263 -0.101039,-0.193661 -0.202079,-0.193661 -0.14314,0 -0.2947,0.126301 -0.2947,0.328381 0,0.235759 0.23576,0.370479 0.454678,0.370479 0.294701,0 0.51362,-0.319959 0.60624,-0.522039 0.17682,-0.336799 0.2947,-0.985138 0.30312,-1.027239 z m 0,0"
       id="id-a07818ae-9cac-4102-ab96-94693d51c0c6"
       style="fill:#000000;fill-opacity:1;stroke-width:0.538879" />
    <path
       style="fill:none;stroke:#000000;stroke-width:0.264583"
       d="m 74.281728,92.843075 c -2.1776,0.901993 -5,2.642976 -5,4.999998 0,2.357027 5,2.642977 5,5.000007 0,2.35702 -5.37755,2.67341 -5,5 0.59696,3.67866 6.46447,6.17851 10,5 3.53553,-1.17851 4.14376,-6.37292 5,-10 0.76584,-3.244169 2.35702,-7.642983 0,-10.000005 -2.35702,-2.357023 -6.9204,-1.275611 -10,0 z"
       id="path3"
       sodipodi:nodetypes="aaaaaaaa" />
    <path
       style="fill:none;stroke:#000000;stroke-width:0.264583"
       d="m 104.72636,89.666996 c -2.47256,0.327006 -5.407813,2.638468 -5.444633,5.132289 -0.0348,2.356766 4.098003,2.822396 4.999993,5.000001 1.27561,3.079604 -1.32915,6.943134 0,10.000004 1.00022,2.30039 3.04582,5.63388 5.50359,5.13229 3.62043,-0.73886 3.73037,-6.51751 4.49641,-10.13229 0.69105,-3.26092 1.71079,-7.13918 0,-10.000005 -1.8556,-3.102977 -5.97109,-5.606323 -9.55536,-5.132289 z"
       id="path4"
       sodipodi:nodetypes="aaaaaaaa" />
    <circle
       style="fill:none;stroke:#000000;stroke-width:0.264583"
       id="path8-8"
       cx="77.785316"
       cy="97"
       r="0.5" />
    <circle
       style="fill:none;stroke:#000000;stroke-width:0.264583"
       id="path8-6"
       cx="77.785316"
       cy="102"
       r="0.5" />
    <circle
       style="fill:none;stroke:#000000;stroke-width:0.264583"
       id="path8-4"
       cx="79.785316"
       cy="107"
       r="0.5" />
    <circle
       style="fill:none;stroke:#000000;stroke-width:0.264583"
       id="path8-2"
       cx="75.785316"
       cy="109"
       r="0.5" />
    <circle
       style="fill:none;stroke:#000000;stroke-width:0.264583"
       id="path8-98"
       cx="108.78532"
       cy="99"
       r="0.5" />
    <circle
       style="fill:none;stroke:#000000;stroke-width:0.264583"
       id="path8-74"
       cx="104.78532"
       cy="94"
       r="0.5" />
    <circle
       style="fill:none;stroke:#000000;stroke-width:0.264583"
       id="path8-12"
       cx="107.78532"
       cy="106"
       r="0.5" />
    <circle
       style="fill:none;stroke:#000000;stroke-width:0.264583"
       id="path8-99"
       cx="110.78532"
       cy="109"
       r="0.5" />
    <path
       style="fill:none;stroke:#000000;stroke-width:0.264999;stroke-dasharray:none;marker-end:url(#marker19)"
       d="m 77.785316,96.999995 c 0,0 8.709274,-7.967357 25.435484,-3.479837"
       id="path15"
       sodipodi:nodetypes="cc" />
    <path
       style="fill:none;stroke:#000000;stroke-width:0.264999;stroke-dasharray:none;marker-end:url(#marker19)"
       d="m 77.785316,102 c 0,0 15.598891,6.09113 29.673384,-2.000003"
       id="path16"
       sodipodi:nodetypes="cc" />
    <path
       style="fill:none;stroke:#000000;stroke-width:0.264999;stroke-dasharray:none;marker-end:url(#marker19)"
       d="m 79.785314,107 c 0,0 11.794521,4.48307 26.616926,-0.54839"
       id="path17"
       sodipodi:nodetypes="cc" />
    <path
       style="fill:none;stroke:#000000;stroke-width:0.264999;stroke-dasharray:none;marker-end:url(#marker19)"
       d="m 75.785315,108.99999 c 0,0 12.350568,8.65544 33.632285,0.6323"
       id="path18"
       sodipodi:nodetypes="cc" />
    <g
       transform="matrix(0.5388793,0,0,0.5388793,90.596329,89.846134)"
       id="g24"
       style="fill:#000000;fill-opacity:1">
      <path
         d="M 4.6875,-3.765625 C 4.703125,-3.8125 4.71875,-3.875 4.71875,-3.9375 c 0,-0.171875 -0.109375,-0.265625 -0.28125,-0.265625 -0.09375,0 -0.375,0.0625 -0.40625,0.421875 -0.1875,-0.359375 -0.53125,-0.625 -0.9375,-0.625 -1.125,0 -2.359375,1.390625 -2.359375,2.828125 0,0.984375 0.59375,1.578125 1.3125,1.578125 0.59375,0 1.0625,-0.46875 1.15625,-0.578125 L 3.21875,-0.5625 C 3.015625,0.3125 2.890625,0.734375 2.890625,0.75 2.84375,0.84375 2.515625,1.828125 1.453125,1.828125 1.265625,1.828125 0.9375,1.8125 0.65625,1.71875 0.953125,1.640625 1.0625,1.375 1.0625,1.203125 c 0,-0.15625 -0.109375,-0.34375 -0.375,-0.34375 -0.21875,0 -0.53125,0.171875 -0.53125,0.578125 0,0.40625 0.359375,0.609375 1.3125,0.609375 1.25,0 1.96875,-0.78125 2.125,-1.375 z M 3.40625,-1.28125 C 3.34375,-1.015625 3.109375,-0.765625 2.890625,-0.578125 2.6875,-0.40625 2.375,-0.21875 2.078125,-0.21875 c -0.5,0 -0.640625,-0.515625 -0.640625,-0.921875 0,-0.46875 0.28125,-1.65625 0.5625,-2.15625 C 2.265625,-3.78125 2.6875,-4.1875 3.109375,-4.1875 c 0.65625,0 0.796875,0.8125 0.796875,0.859375 0,0.046875 -0.015625,0.109375 -0.03125,0.140625 z m 0,0"
         id="id-703bc85a-8bf7-4c8e-9f55-5a7e359a1b26" />
    </g>
    <path
       style="fill:none;stroke:#000000;stroke-width:0.264583"
       d="m 140,92.137999 c -2.27304,0.94017 -4.33406,2.91928 -5.22333,5.21271 -0.57753,1.48945 -0.42224,3.326041 0.22333,4.787291 0.9525,2.15599 4.09801,2.82239 5,4.99999 0.63781,1.5398 -1.17851,3.82149 0,5 1.17851,1.17851 3.58225,0.87622 5,0 3.17019,-1.95928 4.10029,-6.38345 5,-9.99999 0.44353,-1.78285 0.87139,-3.828031 0.13229,-5.510001 -0.91443,-2.08099 -3.00446,-3.6906 -5.13229,-4.49 -1.5602,-0.58615 -3.45988,-0.63702 -5,0 z"
       id="path5"
       sodipodi:nodetypes="aaaaaaaaaa" />
    <path
       style="fill:none;stroke:#000000;stroke-width:0.264583"
       d="m 170,94.619848 c -2.26302,0.65899 -4.12513,2.81136 -5,5 -0.61882,1.548082 -0.52318,3.463662 0.12425,4.999992 0.90403,2.14522 2.73068,4.09563 4.87575,5 1.84291,0.77697 4.32302,1.08983 6,0 2.75273,-1.78892 3.71598,-5.72935 4,-8.99999 0.1189,-1.369222 -0.0155,-3.041042 -1,-4.000002 -2.20147,-2.14429 -6.04938,-2.85922 -9,-2 z"
       id="path6"
       sodipodi:nodetypes="aaaaaaaa" />
    <circle
       style="fill:none;stroke:#000000;stroke-width:0.264583"
       id="path8-39"
       cx="140"
       cy="100"
       r="0.5" />
    <circle
       style="fill:none;stroke:#000000;stroke-width:0.264583"
       id="path8-63"
       cx="144"
       cy="96"
       r="0.5" />
    <circle
       style="fill:none;stroke:#000000;stroke-width:0.264583"
       id="path8-749"
       cx="143"
       cy="103"
       r="0.5" />
    <circle
       style="fill:none;stroke:#000000;stroke-width:0.264583"
       id="path8-67"
       cx="143"
       cy="108"
       r="0.5" />
    <circle
       style="fill:none;stroke:#000000;stroke-width:0.264583"
       id="path8-31"
       cx="170"
       cy="100"
       r="0.5" />
    <circle
       style="fill:none;stroke:#000000;stroke-width:0.264583"
       id="path8-51"
       cx="170"
       cy="106"
       r="0.5" />
    <circle
       style="fill:none;stroke:#000000;stroke-width:0.264583"
       id="path8-60"
       cx="174"
       cy="97"
       r="0.5" />
    <path
       style="fill:none;stroke:#000000;stroke-width:0.264999;stroke-dasharray:none;marker-end:url(#marker19)"
       d="m 144,95.999997 c 0,0 13.62346,-8.772195 28.62346,0.227802"
       id="path20"
       sodipodi:nodetypes="cc" />
    <path
       style="fill:none;stroke:#000000;stroke-width:0.264999;stroke-dasharray:none;marker-end:url(#marker19)"
       d="m 140,99.999997 c 0,0 15.49702,-5.632288 28.49701,-0.632288"
       id="path21"
       sodipodi:nodetypes="cc" />
    <path
       style="fill:none;stroke:#000000;stroke-width:0.264999;stroke-dasharray:none;marker-end:url(#marker19)"
       d="m 143,107.99999 c 0,0 12.02325,-9.677231 25.69477,-2.63228"
       id="path23"
       sodipodi:nodetypes="cc" />
    <g
       transform="matrix(0.5388793,0,0,0.5388793,158.81152,90.067544)"
       id="g25"
       style="fill:#000000;fill-opacity:1">
      <path
         d="m 2.859375,-6.8125 c 0,0 0,-0.109375 -0.125,-0.109375 -0.234375,0 -0.953125,0.078125 -1.21875,0.109375 -0.078125,0 -0.1875,0.015625 -0.1875,0.1875 0,0.125 0.09375,0.125 0.234375,0.125 0.484375,0 0.5,0.0625 0.5,0.171875 L 2.03125,-6.125 0.59375,-0.390625 c -0.046875,0.140625 -0.046875,0.15625 -0.046875,0.21875 0,0.234375 0.203125,0.28125 0.296875,0.28125 0.15625,0 0.3125,-0.125 0.359375,-0.265625 l 0.1875,-0.75 0.21875,-0.890625 C 1.671875,-2.03125 1.734375,-2.25 1.78125,-2.46875 1.796875,-2.53125 1.890625,-2.859375 1.890625,-2.921875 1.921875,-3.015625 2.234375,-3.5625 2.578125,-3.84375 2.796875,-4 3.09375,-4.1875 3.53125,-4.1875 c 0.421875,0 0.53125,0.34375 0.53125,0.703125 0,0.53125 -0.375,1.625 -0.609375,2.234375 C 3.375,-1.03125 3.3125,-0.90625 3.3125,-0.703125 c 0,0.46875 0.359375,0.8125 0.828125,0.8125 0.9375,0 1.296875,-1.453125 1.296875,-1.53125 0,-0.109375 -0.078125,-0.109375 -0.109375,-0.109375 -0.109375,0 -0.109375,0.03125 -0.15625,0.1875 -0.140625,0.53125 -0.46875,1.234375 -1.015625,1.234375 -0.171875,0 -0.234375,-0.09375 -0.234375,-0.328125 0,-0.25 0.078125,-0.484375 0.171875,-0.703125 0.15625,-0.4375 0.609375,-1.625 0.609375,-2.203125 0,-0.640625 -0.390625,-1.0625 -1.140625,-1.0625 -0.625,0 -1.109375,0.3125 -1.484375,0.765625 z m 0,0"
         id="id-431aecf0-6615-4eb2-be06-f026aa8c960c" />
    </g>
    <path
       d="m 9.3218471,115.93439 c -0.1385821,0.23282 -0.2771642,0.2827 -0.4323762,0.29379 -0.044346,0.006 -0.077606,0.006 -0.077606,0.072 0,0.0222 0.022173,0.0388 0.049889,0.0388 0.094236,0 0.2051015,-0.0111 0.2993374,-0.0111 0.1219522,0 0.2439046,0.0111 0.3547704,0.0111 0.022171,0 0.06652,0 0.06652,-0.0665 0,-0.0388 -0.02771,-0.0443 -0.055435,-0.0443 -0.077606,-0.006 -0.166298,-0.0333 -0.166298,-0.12195 0,-0.0443 0.022171,-0.0832 0.049892,-0.13304 l 0.2716209,-0.44901 h 0.8869264 c 0.0056,0.072 0.05544,0.55433 0.05544,0.58759 0,0.10532 -0.182929,0.11641 -0.254991,0.11641 -0.04989,0 -0.08315,0 -0.08315,0.072 0,0.0388 0.0388,0.0388 0.04989,0.0388 0.144125,0 0.293794,-0.0111 0.437919,-0.0111 0.08869,0 0.315967,0.0111 0.40466,0.0111 0.01663,0 0.06098,0 0.06098,-0.0721 0,-0.0388 -0.03326,-0.0388 -0.08315,-0.0388 -0.216189,0 -0.216189,-0.0222 -0.227276,-0.1275 l -0.216187,-2.20622 c -0.0056,-0.0721 -0.0056,-0.0887 -0.06652,-0.0887 -0.05544,0 -0.07206,0.0277 -0.09424,0.061 z m 0.4268335,-0.52107 0.6929104,-1.16963 0.116409,1.16963 z m 0,0"
       id="id-83384e96-8857-4cb7-85a0-8c03b0cbad4a"
       style="fill:#000000;fill-opacity:1;stroke-width:0.35477" />
    <path
       d="m 37.377252,116.30403 c -0.03326,0.13857 -0.04435,0.16629 -0.32151,0.16629 -0.06098,0 -0.09423,0 -0.09423,0.0721 0,0.0388 0.03326,0.0388 0.09423,0.0388 h 1.263869 c 0.559872,0 0.975617,-0.41574 0.975617,-0.76497 0,-0.25499 -0.205101,-0.46009 -0.548785,-0.4989 0.365858,-0.0665 0.737258,-0.32705 0.737258,-0.66519 0,-0.26053 -0.232818,-0.48781 -0.654108,-0.48781 h -1.191806 c -0.06652,0 -0.09978,0 -0.09978,0.0721 0,0.0388 0.03326,0.0388 0.09978,0.0388 0.0056,0 0.07206,0 0.133039,0.006 0.06098,0.0111 0.09424,0.0111 0.09424,0.061 0,0.0111 -0.0056,0.0221 -0.01109,0.0665 z m 0.532156,-1.01997 0.221731,-0.87584 c 0.03326,-0.12196 0.0388,-0.13304 0.188472,-0.13304 h 0.460092 c 0.310424,0 0.382487,0.21065 0.382487,0.36586 0,0.31042 -0.304881,0.64302 -0.731714,0.64302 z m -0.155212,1.18626 c -0.04989,0 -0.05543,0 -0.07761,0 -0.0388,-0.006 -0.04989,-0.0111 -0.04989,-0.0388 0,-0.0111 0,-0.0166 0.02217,-0.0776 l 0.243905,-0.9867 h 0.665194 c 0.33814,0 0.410203,0.26053 0.410203,0.4102 0,0.34922 -0.315967,0.69291 -0.737257,0.69291 z m 0,0"
       id="id-9ee38d2a-9209-4c0b-b04d-a56b7c827059"
       style="fill:#000000;fill-opacity:1;stroke-width:0.35477" />
    <path
       d="m 75.589524,116.61868 c -0.138582,0.23282 -0.277164,0.2827 -0.432375,0.2938 -0.04435,0.006 -0.07761,0.006 -0.07761,0.0721 0,0.0221 0.02217,0.0388 0.04989,0.0388 0.09424,0 0.205102,-0.0111 0.299338,-0.0111 0.121952,0 0.243904,0.0111 0.35477,0.0111 0.02217,0 0.06652,0 0.06652,-0.0665 0,-0.0388 -0.02771,-0.0443 -0.05544,-0.0443 -0.07761,-0.006 -0.166298,-0.0333 -0.166298,-0.12196 0,-0.0443 0.02217,-0.0832 0.04989,-0.13304 l 0.27162,-0.449 h 0.886926 c 0.0056,0.0721 0.05543,0.55433 0.05543,0.58759 0,0.10532 -0.182928,0.11641 -0.254991,0.11641 -0.04989,0 -0.08315,0 -0.08315,0.0721 0,0.0388 0.03881,0.0388 0.04989,0.0388 0.144124,0 0.293793,-0.0111 0.437919,-0.0111 0.08869,0 0.315967,0.0111 0.404659,0.0111 0.01663,0 0.06098,0 0.06098,-0.0721 0,-0.0388 -0.03326,-0.0388 -0.08315,-0.0388 -0.216188,0 -0.216188,-0.0222 -0.227275,-0.1275 l -0.216188,-2.20622 c -0.0056,-0.0721 -0.0056,-0.0887 -0.06652,-0.0887 -0.05544,0 -0.07206,0.0277 -0.09424,0.061 z m 0.426834,-0.52107 0.69291,-1.16963 0.116409,1.16963 z m 0,0"
       id="id-83384e96-8857-4cb7-85a0-8c03b0cbad4a-1"
       style="fill:#000000;fill-opacity:1;stroke-width:0.35477" />
    <path
       d="m 109.28571,117.98415 c -0.0333,0.13858 -0.0443,0.1663 -0.32151,0.1663 -0.061,0 -0.0942,0 -0.0942,0.0721 0,0.0388 0.0333,0.0388 0.0942,0.0388 h 1.26387 c 0.55987,0 0.97562,-0.41574 0.97562,-0.76498 0,-0.25499 -0.20511,-0.46008 -0.54879,-0.49889 0.36586,-0.0665 0.73726,-0.32705 0.73726,-0.66519 0,-0.26053 -0.23282,-0.48781 -0.65411,-0.48781 h -1.19181 c -0.0665,0 -0.0998,0 -0.0998,0.0721 0,0.0388 0.0333,0.0388 0.0998,0.0388 0.006,0 0.0721,0 0.13305,0.006 0.061,0.0111 0.0942,0.0111 0.0942,0.061 0,0.0111 -0.006,0.0222 -0.0111,0.0665 z m 0.53216,-1.01996 0.22173,-0.87584 c 0.0333,-0.12196 0.0388,-0.13304 0.18847,-0.13304 h 0.46009 c 0.31042,0 0.38249,0.21064 0.38249,0.36586 0,0.31042 -0.30488,0.64302 -0.73171,0.64302 z m -0.15521,1.18626 c -0.0499,0 -0.0554,0 -0.0776,0 -0.0388,-0.006 -0.0499,-0.0111 -0.0499,-0.0388 0,-0.0111 0,-0.0166 0.0222,-0.0776 l 0.2439,-0.98671 h 0.6652 c 0.33814,0 0.4102,0.26054 0.4102,0.41021 0,0.34922 -0.31596,0.69291 -0.73725,0.69291 z m 0,0"
       id="id-9ee38d2a-9209-4c0b-b04d-a56b7c827059-9"
       style="fill:#000000;fill-opacity:1;stroke-width:0.35477" />
    <path
       d="m 141.48047,116.09715 c -0.13858,0.23282 -0.27717,0.28271 -0.43238,0.2938 -0.0443,0.006 -0.0776,0.006 -0.0776,0.0721 0,0.0222 0.0222,0.0388 0.0499,0.0388 0.0942,0 0.20511,-0.0111 0.29934,-0.0111 0.12195,0 0.24391,0.0111 0.35477,0.0111 0.0222,0 0.0665,0 0.0665,-0.0665 0,-0.0388 -0.0277,-0.0443 -0.0554,-0.0443 -0.0776,-0.006 -0.1663,-0.0333 -0.1663,-0.12195 0,-0.0443 0.0221,-0.0832 0.0499,-0.13304 l 0.27162,-0.44901 h 0.88692 c 0.006,0.0721 0.0554,0.55433 0.0554,0.58759 0,0.10532 -0.18293,0.11641 -0.25499,0.11641 -0.0499,0 -0.0831,0 -0.0831,0.0721 0,0.0388 0.0388,0.0388 0.0499,0.0388 0.14413,0 0.2938,-0.0111 0.43792,-0.0111 0.0887,0 0.31597,0.0111 0.40466,0.0111 0.0166,0 0.061,0 0.061,-0.0721 0,-0.0388 -0.0333,-0.0388 -0.0832,-0.0388 -0.21619,0 -0.21619,-0.0221 -0.22728,-0.1275 l -0.21619,-2.20622 c -0.006,-0.0721 -0.006,-0.0887 -0.0665,-0.0887 -0.0554,0 -0.072,0.0277 -0.0942,0.061 z m 0.42683,-0.52106 0.69292,-1.16964 0.1164,1.16964 z m 0,0"
       id="id-83384e96-8857-4cb7-85a0-8c03b0cbad4a-6"
       style="fill:#000000;fill-opacity:1;stroke-width:0.35477" />
    <path
       d="m 171.79367,114.10469 c -0.0333,0.13857 -0.0443,0.1663 -0.32151,0.1663 -0.061,0 -0.0942,0 -0.0942,0.072 0,0.0388 0.0333,0.0388 0.0942,0.0388 h 1.26387 c 0.55987,0 0.97562,-0.41574 0.97562,-0.76498 0,-0.25499 -0.20511,-0.46008 -0.54879,-0.49889 0.36586,-0.0665 0.73726,-0.32705 0.73726,-0.66519 0,-0.26053 -0.23282,-0.48781 -0.65411,-0.48781 h -1.19181 c -0.0665,0 -0.0998,0 -0.0998,0.0721 0,0.0388 0.0333,0.0388 0.0998,0.0388 0.006,0 0.0721,0 0.13305,0.006 0.061,0.0111 0.0942,0.0111 0.0942,0.061 0,0.0111 -0.006,0.0222 -0.0111,0.0665 z m 0.53216,-1.01997 0.22173,-0.87584 c 0.0333,-0.12195 0.0388,-0.13304 0.18847,-0.13304 h 0.46009 c 0.31042,0 0.38249,0.21065 0.38249,0.36586 0,0.31043 -0.30488,0.64302 -0.73172,0.64302 z m -0.15521,1.18627 c -0.0499,0 -0.0554,0 -0.0776,0 -0.0388,-0.006 -0.0499,-0.0111 -0.0499,-0.0388 0,-0.0111 0,-0.0166 0.0222,-0.0776 l 0.2439,-0.9867 h 0.6652 c 0.33814,0 0.4102,0.26053 0.4102,0.4102 0,0.34923 -0.31597,0.69291 -0.73725,0.69291 z m 0,0"
       id="id-9ee38d2a-9209-4c0b-b04d-a56b7c827059-4"
       style="fill:#000000;fill-opacity:1;stroke-width:0.35477" />
  </g>
</svg>
